<?xml version="1.0" encoding="UTF-8" standalone="no"?>
<svg
   xmlns:dc="http://purl.org/dc/elements/1.1/"
   xmlns:cc="http://creativecommons.org/ns#"
   xmlns:rdf="http://www.w3.org/1999/02/22-rdf-syntax-ns#"
   xmlns:svg="http://www.w3.org/2000/svg"
   xmlns="http://www.w3.org/2000/svg"
   id="svg8"
   version="1.1"
   viewBox="0 0 97.000397 26.999918"
   height="26.999918mm"
   width="97.000397mm">
  <defs
     id="defs2">
    <clipPath
       clipPathUnits="userSpaceOnUse"
       id="clipPath833">
      <path
         d="M 1577.95,1179.41 850.41,1569.18 122.832,1179.41 0,1245.21 l 850.41,455.58 850.37,-455.58 -122.83,-65.8"
         id="path831" />
    </clipPath>
    <clipPath
       clipPathUnits="userSpaceOnUse"
       id="clipPath845">
      <path
         d="m 1577.94,1047.8 -122.83,65.81 122.84,65.8 122.83,-65.8 -122.84,-65.81 m -1455.088,0 L 0,1113.61 l 122.832,65.8 122.852,-65.8 -122.832,-65.81"
         id="path843" />
    </clipPath>
    <clipPath
       clipPathUnits="userSpaceOnUse"
       id="clipPath857">
      <path
         d="m 1455.11,1113.61 -604.7,323.95 -604.726,-323.95 -122.852,65.8 727.578,389.77 727.54,-389.77 -122.84,-65.8"
         id="path855" />
    </clipPath>
    <clipPath
       clipPathUnits="userSpaceOnUse"
       id="clipPath869">
      <path
         d="m 1577.97,916.195 -122.85,65.813 122.82,65.792 122.84,-65.808 -122.81,-65.797 m -1455.15,0 L 0,981.992 122.852,1047.8 245.676,982.008 122.82,916.195"
         id="path867" />
    </clipPath>
    <clipPath
       clipPathUnits="userSpaceOnUse"
       id="clipPath881">
      <path
         d="m 1455.12,982.008 -122.83,65.802 122.82,65.8 122.83,-65.81 -122.82,-65.792 m -1209.444,0 -122.824,65.792 122.832,65.81 122.828,-65.8 -122.836,-65.802"
         id="path879" />
    </clipPath>
    <clipPath
       clipPathUnits="userSpaceOnUse"
       id="clipPath893">
      <path
         d="m 1332.29,1047.81 -481.88,258.15 -481.898,-258.15 -122.828,65.8 604.726,323.95 604.7,-323.95 -122.82,-65.8"
         id="path891" />
    </clipPath>
    <clipPath
       clipPathUnits="userSpaceOnUse"
       id="clipPath905">
      <path
         d="m 1577.96,784.602 -122.82,65.789 122.83,65.804 122.81,-65.797 -122.82,-65.796 m -1455.132,0 L 0,850.398 122.82,916.195 245.652,850.391 122.828,784.602"
         id="path903" />
    </clipPath>
    <clipPath
       clipPathUnits="userSpaceOnUse"
       id="clipPath917">
      <path
         d="m 1455.14,850.391 -122.85,65.816 122.83,65.801 122.85,-65.813 -122.83,-65.804 m -1209.488,0 -122.832,65.804 122.856,65.813 122.836,-65.801 -122.86,-65.816"
         id="path915" />
    </clipPath>
    <clipPath
       clipPathUnits="userSpaceOnUse"
       id="clipPath929">
      <path
         d="m 1332.29,916.207 -122.83,65.801 122.83,65.802 122.83,-65.802 -122.83,-65.801 m -963.778,0 -122.836,65.801 122.836,65.802 122.832,-65.802 -122.832,-65.801"
         id="path927" />
    </clipPath>
    <clipPath
       clipPathUnits="userSpaceOnUse"
       id="clipPath941">
      <path
         d="M 1209.46,982.008 850.41,1174.36 491.344,982.008 368.512,1047.81 850.41,1305.96 1332.29,1047.81 1209.46,982.008"
         id="path939" />
    </clipPath>
    <clipPath
       clipPathUnits="userSpaceOnUse"
       id="clipPath953">
      <path
         d="m 1577.93,652.98 -122.83,65.801 122.86,65.821 122.82,-65.801 -122.85,-65.821 m -1455.067,0 L 0,718.801 122.828,784.602 245.688,718.781 122.863,652.98"
         id="path951" />
    </clipPath>
    <clipPath
       clipPathUnits="userSpaceOnUse"
       id="clipPath965">
      <path
         d="m 1455.1,718.781 -122.81,65.797 122.85,65.813 122.82,-65.789 -122.86,-65.821 m -1209.412,0 -122.86,65.821 122.824,65.789 122.86,-65.813 -122.824,-65.797"
         id="path963" />
    </clipPath>
    <clipPath
       clipPathUnits="userSpaceOnUse"
       id="clipPath977">
      <path
         d="m 1332.29,784.578 -122.86,65.813 122.86,65.816 122.85,-65.816 -122.85,-65.813 m -963.778,0 -122.86,65.813 122.86,65.816 122.855,-65.816 -122.855,-65.813"
         id="path975" />
    </clipPath>
    <clipPath
       clipPathUnits="userSpaceOnUse"
       id="clipPath989">
      <path
         d="m 1209.43,850.391 -122.82,65.804 122.85,65.813 122.83,-65.801 -122.86,-65.816 m -718.063,0 -122.855,65.816 122.832,65.801 122.855,-65.813 -122.832,-65.804"
         id="path987" />
    </clipPath>
    <clipPath
       clipPathUnits="userSpaceOnUse"
       id="clipPath1001">
      <path
         d="M 1086.61,916.195 850.41,1042.73 614.199,916.195 491.344,982.008 850.41,1174.36 1209.46,982.008 1086.61,916.195"
         id="path999" />
    </clipPath>
    <clipPath
       clipPathUnits="userSpaceOnUse"
       id="clipPath1013">
      <path
         d="m 1577.95,521.352 -122.85,65.82 122.83,65.808 122.85,-65.82 -122.83,-65.808 m -1455.11,0 L 0,587.16 122.863,652.98 245.695,587.172 122.84,521.352"
         id="path1011" />
    </clipPath>
    <clipPath
       clipPathUnits="userSpaceOnUse"
       id="clipPath1025">
      <path
         d="m 1455.1,587.172 -122.82,65.797 122.82,65.812 122.83,-65.801 -122.83,-65.808 m -1209.405,0 -122.832,65.808 122.825,65.801 122.835,-65.812 -122.828,-65.797"
         id="path1023" />
    </clipPath>
    <clipPath
       clipPathUnits="userSpaceOnUse"
       id="clipPath1037">
      <path
         d="m 1332.28,652.969 -122.83,65.801 122.84,65.808 122.81,-65.797 -122.82,-65.812 m -963.757,0 -122.835,65.812 122.824,65.797 122.84,-65.808 -122.829,-65.801"
         id="path1035" />
    </clipPath>
    <clipPath
       clipPathUnits="userSpaceOnUse"
       id="clipPath1049">
      <path
         d="m 1209.45,718.77 -122.85,65.82 122.83,65.801 122.86,-65.813 -122.84,-65.808 m -718.098,0 -122.84,65.808 122.855,65.813 122.844,-65.801 -122.859,-65.82"
         id="path1047" />
    </clipPath>
    <clipPath
       clipPathUnits="userSpaceOnUse"
       id="clipPath1061">
      <path
         d="m 1086.6,784.59 -122.827,65.801 122.837,65.804 122.82,-65.804 -122.83,-65.801 m -472.389,0 -122.844,65.801 122.832,65.804 122.84,-65.804 -122.828,-65.801"
         id="path1059" />
    </clipPath>
    <clipPath
       clipPathUnits="userSpaceOnUse"
       id="clipPath1073">
      <path
         d="M 963.773,850.391 850.41,911.125 737.039,850.391 614.199,916.195 850.41,1042.73 1086.61,916.195 963.773,850.391"
         id="path1071" />
    </clipPath>
    <clipPath
       clipPathUnits="userSpaceOnUse"
       id="clipPath1085">
      <path
         d="M 850.41,0 0,455.551 122.84,521.352 850.41,131.602 1577.95,521.352 1700.78,455.551 850.41,0"
         id="path1083" />
    </clipPath>
    <clipPath
       clipPathUnits="userSpaceOnUse"
       id="clipPath1097">
      <path
         d="m 850.41,131.602 -727.57,389.75 122.855,65.82 604.715,-323.973 604.69,323.973 122.85,-65.82 -727.54,-389.75"
         id="path1095" />
    </clipPath>
    <clipPath
       clipPathUnits="userSpaceOnUse"
       id="clipPath1109">
      <path
         d="M 850.41,263.199 245.695,587.172 368.523,652.969 850.41,394.809 1332.28,652.969 1455.1,587.172 850.41,263.199"
         id="path1107" />
    </clipPath>
    <clipPath
       clipPathUnits="userSpaceOnUse"
       id="clipPath1121">
      <path
         d="M 850.41,394.809 368.523,652.969 491.352,718.77 850.41,526.422 1209.45,718.77 1332.28,652.969 850.41,394.809"
         id="path1119" />
    </clipPath>
    <clipPath
       clipPathUnits="userSpaceOnUse"
       id="clipPath1133">
      <path
         d="M 850.41,526.422 491.352,718.77 614.211,784.59 850.41,658.059 1086.6,784.59 1209.45,718.77 850.41,526.422"
         id="path1131" />
    </clipPath>
    <clipPath
       clipPathUnits="userSpaceOnUse"
       id="clipPath1145">
      <path
         d="M 850.41,658.059 614.211,784.59 737.039,850.391 850.41,789.66 963.773,850.391 1086.6,784.59 850.41,658.059"
         id="path1143" />
    </clipPath>
    <clipPath
       clipPathUnits="userSpaceOnUse"
       id="clipPath1157">
      <path
         d="M 850.41,789.66 737.039,850.391 850.41,911.125 963.773,850.391 850.41,789.66"
         id="path1155" />
    </clipPath>
    <clipPath
       clipPathUnits="userSpaceOnUse"
       id="clipPath1169">
      <path
         d="M 0,1877.95 V 0 h 2834.64 v 1877.95 z"
         id="path1167" />
    </clipPath>
    <clipPath
       clipPathUnits="userSpaceOnUse"
       id="clipPath1372">
      <path
         d="M 0,765.352 V 0 h 2749.62 v 765.352 z"
         id="path1370" />
    </clipPath>
  </defs>
  <metadata
     id="metadata5">
    <rdf:RDF>
      <cc:Work
         rdf:about="">
        <dc:format>image/svg+xml</dc:format>
        <dc:type
           rdf:resource="http://purl.org/dc/dcmitype/StillImage" />
        <dc:title></dc:title>
      </cc:Work>
    </rdf:RDF>
  </metadata>
  <g
     transform="translate(-126.1248,-135.33337)"
     id="layer1">
    <g
       id="g1362"
       transform="matrix(0.35277777,0,0,-0.35277777,126.1248,162.33329)">
      <g
         id="g1364"
         transform="scale(0.1)">
        <g
           id="g1366">
          <g
             id="g1368"
             clip-path="url(#clipPath1372)">
            <path
               d="m 74.6875,597.297 c 0,-1.621 -0.6055,-2.949 -1.8164,-4.004 -1.2109,-1.047 -2.5586,-1.574 -4.0039,-1.574 H 8.48047 c -1.60156,0 -2.94922,0.605 -3.98438,1.816 -1.05468,1.211 -1.58203,2.551 -1.58203,4.004 v 159.805 c 0,1.301 0.52735,2.551 1.58203,3.761 1.03516,1.211 2.38282,1.817 3.98438,1.817 h 8.26173 c 1.7773,0 3.1445,-0.606 4.1211,-1.817 0.957,-1.21 1.4453,-2.46 1.4453,-3.761 V 611.125 h 46.5586 c 1.4453,0 2.793,-0.488 4.0039,-1.457 1.2109,-0.977 1.8164,-2.352 1.8164,-4.129 v -8.242"
               style="fill:#404344;fill-opacity:1;fill-rule:nonzero;stroke:none"
               id="path1374" />
            <path
               d="m 178.965,597.297 c 0,-1.621 -0.625,-2.949 -1.836,-4.004 -1.211,-1.047 -2.539,-1.574 -3.984,-1.574 h -63.79 c -1.621,0 -2.949,0.605 -4.003,1.816 -1.055,1.211 -1.563,2.551 -1.563,4.004 v 159.805 c 0,1.301 0.508,2.551 1.563,3.761 1.054,1.211 2.382,1.817 4.003,1.817 h 62.09 c 1.446,0 2.774,-0.481 4.004,-1.457 1.211,-0.965 1.817,-2.344 1.817,-4.121 v -8.242 c 0,-1.622 -0.606,-2.95 -1.817,-4.004 -1.23,-1.055 -2.558,-1.571 -4.004,-1.571 h -48.261 v -53.593 h 41.464 c 1.446,0 2.793,-0.489 4.004,-1.457 1.211,-0.965 1.817,-2.344 1.817,-4.122 v -8.242 c 0,-1.621 -0.606,-2.957 -1.817,-4.004 -1.211,-1.054 -2.558,-1.582 -4.004,-1.582 h -41.464 v -59.402 h 49.961 c 1.445,0 2.773,-0.488 3.984,-1.457 1.211,-0.977 1.836,-2.352 1.836,-4.129 v -8.242"
               style="fill:#404344;fill-opacity:1;fill-rule:nonzero;stroke:none"
               id="path1376" />
            <path
               d="m 222.109,591.719 c -1.621,0 -2.949,0.605 -4.004,1.816 -1.035,1.211 -1.562,2.551 -1.562,4.004 v 159.805 c 0,1.301 0.527,2.551 1.562,3.761 1.055,1.211 2.383,1.817 4.004,1.817 h 8.243 c 1.777,0 3.164,-0.606 4.14,-1.817 0.957,-1.21 1.446,-2.46 1.446,-3.761 V 597.539 c 0,-1.453 -0.489,-2.793 -1.446,-4.004 -0.976,-1.211 -2.363,-1.816 -4.14,-1.816 h -8.243"
               style="fill:#404344;fill-opacity:1;fill-rule:nonzero;stroke:none"
               id="path1378" />
            <path
               d="m 303.105,671.984 v -60.859 h 19.883 c 4.043,0 7.657,0.438 10.801,1.328 3.145,0.887 5.82,2.547 8.008,4.969 2.168,2.433 3.828,5.82 4.961,10.187 1.133,4.364 1.699,10.106 1.699,17.215 0,5.656 -0.644,10.266 -1.934,13.828 -1.308,3.555 -3.242,6.301 -5.82,8.243 -2.598,1.945 -5.781,3.273 -9.59,4.003 -3.789,0.723 -8.203,1.086 -13.203,1.086 z m 0,19.403 h 15.293 c 3.711,0 7.227,0.207 10.547,0.605 3.301,0.403 6.172,1.535 8.594,3.399 2.441,1.855 4.336,4.765 5.703,8.73 1.367,3.957 2.071,9.57 2.071,16.848 0,5.34 -0.743,9.5 -2.188,12.488 -1.445,2.988 -3.437,5.254 -5.937,6.797 -2.52,1.535 -5.547,2.461 -9.102,2.785 -3.555,0.32 -7.441,0.488 -11.641,0.488 h -13.34 z m 13.594,71.535 c 6.778,0 12.676,-0.324 17.696,-0.969 5,-0.644 9.218,-1.941 12.617,-3.875 5.82,-3.242 10.136,-8.125 12.968,-14.68 2.833,-6.543 4.239,-13.699 4.239,-21.453 0,-12.609 -1.289,-21.672 -3.867,-27.16 -1.797,-3.398 -3.575,-5.906 -5.352,-7.519 -1.777,-1.621 -4.043,-3.153 -6.777,-4.61 7.031,-2.265 12.07,-6.59 15.097,-12.976 3.028,-6.387 4.551,-14.914 4.551,-25.578 0,-6.309 -0.41,-12.579 -1.23,-18.797 -0.801,-6.223 -2.715,-11.848 -5.723,-16.856 -2.988,-5.011 -7.363,-9.054 -13.125,-12.121 -5.762,-3.074 -13.574,-4.609 -23.457,-4.609 h -35.039 c -1.621,0 -2.949,0.605 -4.004,1.816 -1.055,1.211 -1.582,2.551 -1.582,4.004 v 159.805 c 0,1.777 0.605,3.156 1.816,4.121 1.211,0.976 2.461,1.457 3.77,1.457 h 27.402"
               style="fill:#404344;fill-opacity:1;fill-rule:nonzero;stroke:none"
               id="path1380" />
            <path
               d="m 422.422,732.852 3.867,-51.161 v -84.152 c 0,-1.453 -0.469,-2.793 -1.445,-4.004 -0.977,-1.211 -2.344,-1.816 -4.121,-1.816 h -8.243 c -1.621,0 -2.949,0.566 -4.003,1.699 -1.055,1.125 -1.582,2.5 -1.582,4.121 v 159.805 c 0,1.457 0.527,2.754 1.582,3.886 1.054,1.125 2.382,1.692 4.003,1.692 h 14.551 c 1.778,0 3.028,-0.606 3.75,-1.817 0.723,-1.21 1.328,-2.46 1.817,-3.761 l 45.605,-135.555 -3.652,48.738 v 86.575 c 0,1.453 0.488,2.793 1.465,4.003 0.957,1.211 2.343,1.817 4.121,1.817 h 8.242 c 1.621,0 2.949,-0.567 4.004,-1.692 1.055,-1.132 1.582,-2.507 1.582,-4.128 V 597.297 c 0,-1.457 -0.527,-2.754 -1.582,-3.879 -1.055,-1.133 -2.383,-1.699 -4.004,-1.699 h -14.551 c -1.777,0 -3.066,0.605 -3.887,1.816 -0.8,1.211 -1.367,2.461 -1.699,3.762 l -45.82,135.555"
               style="fill:#404344;fill-opacity:1;fill-rule:nonzero;stroke:none"
               id="path1382" />
            <path
               d="m 547.305,591.719 c -1.621,0 -2.95,0.605 -4.004,1.816 -1.055,1.211 -1.563,2.551 -1.563,4.004 v 159.805 c 0,1.301 0.508,2.551 1.563,3.761 1.054,1.211 2.383,1.817 4.004,1.817 h 8.242 c 1.777,0 3.164,-0.606 4.121,-1.817 0.977,-1.21 1.465,-2.46 1.465,-3.761 V 597.539 c 0,-1.453 -0.488,-2.793 -1.465,-4.004 -0.957,-1.211 -2.344,-1.816 -4.121,-1.816 h -8.242"
               style="fill:#404344;fill-opacity:1;fill-rule:nonzero;stroke:none"
               id="path1384" />
            <path
               d="m 601.875,591.719 c -2.109,0 -3.574,0.683 -4.375,2.062 -0.801,1.375 -1.211,2.703 -1.211,4.004 v 11.641 c 0,1.121 0.41,2.742 1.211,4.844 0.801,2.097 1.543,3.796 2.188,5.097 l 55.039,124.16 h -51.153 c -1.465,0 -2.793,0.516 -4.004,1.571 -1.211,1.054 -1.816,2.382 -1.816,4.004 v 8.242 c 0,1.777 0.605,3.156 1.816,4.121 1.211,0.976 2.539,1.457 4.004,1.457 h 66.446 c 1.601,0 2.929,-0.606 3.984,-1.817 1.055,-1.21 1.582,-2.46 1.582,-3.761 v -12.852 c 0,-1.133 -0.156,-2.097 -0.488,-2.91 -0.313,-0.809 -0.645,-1.621 -0.957,-2.422 L 617.383,611.125 h 56.504 c 1.465,0 2.793,-0.488 4.004,-1.457 1.211,-0.977 1.816,-2.352 1.816,-4.129 v -8.242 c 0,-1.621 -0.605,-2.949 -1.816,-4.004 -1.211,-1.047 -2.539,-1.574 -4.004,-1.574 h -72.012"
               style="fill:#404344;fill-opacity:1;fill-rule:nonzero;stroke:none"
               id="path1386" />
            <path
               d="m 783.496,591.719 c -1.621,0 -2.949,0.605 -4.004,1.816 -1.054,1.211 -1.562,2.551 -1.562,4.004 v 159.805 c 0,1.301 0.508,2.551 1.562,3.761 1.055,1.211 2.383,1.817 4.004,1.817 h 8.242 c 1.778,0 3.164,-0.606 4.121,-1.817 0.977,-1.21 1.465,-2.46 1.465,-3.761 V 597.539 c 0,-1.453 -0.488,-2.793 -1.465,-4.004 -0.957,-1.211 -2.343,-1.816 -4.121,-1.816 h -8.242"
               style="fill:#404344;fill-opacity:1;fill-rule:nonzero;stroke:none"
               id="path1388" />
            <path
               d="m 860.605,732.852 3.887,-51.161 v -84.152 c 0,-1.453 -0.488,-2.793 -1.465,-4.004 -0.957,-1.211 -2.343,-1.816 -4.121,-1.816 h -8.242 c -1.621,0 -2.949,0.566 -4.004,1.699 -1.055,1.125 -1.562,2.5 -1.562,4.121 v 159.805 c 0,1.457 0.507,2.754 1.562,3.886 1.055,1.125 2.383,1.692 4.004,1.692 h 14.551 c 1.777,0 3.027,-0.606 3.769,-1.817 0.723,-1.21 1.329,-2.46 1.817,-3.761 l 45.586,-135.555 -3.633,48.738 v 86.575 c 0,1.453 0.488,2.793 1.445,4.003 0.977,1.211 2.344,1.817 4.121,1.817 h 8.243 c 1.621,0 2.949,-0.567 4.003,-1.692 1.055,-1.132 1.582,-2.507 1.582,-4.128 V 597.297 c 0,-1.457 -0.527,-2.754 -1.582,-3.879 -1.054,-1.133 -2.382,-1.699 -4.003,-1.699 h -14.532 c -1.797,0 -3.086,0.605 -3.886,1.816 -0.821,1.211 -1.387,2.461 -1.7,3.762 l -45.84,135.555"
               style="fill:#404344;fill-opacity:1;fill-rule:nonzero;stroke:none"
               id="path1390" />
            <path
               d="m 1043.46,676.113 c 0,-1.621 -0.61,-2.957 -1.84,-4.004 -1.21,-1.054 -2.54,-1.582 -3.98,-1.582 h -41.488 v -72.988 c 0,-1.453 -0.468,-2.793 -1.445,-4.004 -0.977,-1.211 -2.344,-1.816 -4.121,-1.816 h -8.242 c -1.621,0 -2.949,0.605 -4.004,1.816 -1.055,1.211 -1.582,2.551 -1.582,4.004 v 159.805 c 0,1.301 0.527,2.551 1.582,3.761 1.055,1.211 2.383,1.817 4.004,1.817 h 62.066 c 1.47,0 2.8,-0.481 4.01,-1.457 1.21,-0.965 1.81,-2.344 1.81,-4.121 v -8.242 c 0,-1.622 -0.6,-2.95 -1.81,-4.004 -1.21,-1.055 -2.54,-1.571 -4.01,-1.571 h -48.258 v -53.593 h 41.488 c 1.44,0 2.77,-0.489 3.98,-1.457 1.23,-0.965 1.84,-2.344 1.84,-4.122 v -8.242"
               style="fill:#404344;fill-opacity:1;fill-rule:nonzero;stroke:none"
               id="path1392" />
            <path
               d="m 1119.47,745.949 c -4.67,0 -8.4,-0.89 -11.21,-2.668 -2.81,-1.777 -4.98,-4.082 -6.52,-6.914 -1.53,-2.832 -2.6,-6.062 -3.24,-9.695 -0.65,-3.633 -1.06,-7.317 -1.21,-11.035 -0.83,-13.254 -1.14,-25.91 -0.98,-37.949 0.15,-12.051 0.49,-24.778 0.98,-38.196 0.15,-3.719 0.52,-7.441 1.07,-11.152 0.57,-3.719 1.66,-7.031 3.26,-9.942 1.6,-2.91 3.83,-5.261 6.64,-7.039 2.81,-1.777 6.54,-2.668 11.21,-2.668 4.51,0 8.21,0.891 11.1,2.668 2.89,1.778 5.15,4.129 6.75,7.039 1.61,2.911 2.7,6.223 3.25,9.942 0.56,3.711 0.93,7.433 1.09,11.152 0.49,13.418 0.8,26.145 0.98,38.196 0.15,12.039 -0.18,24.695 -0.98,37.949 -0.16,3.718 -0.57,7.402 -1.21,11.035 -0.65,3.633 -1.72,6.863 -3.24,9.695 -1.55,2.832 -3.75,5.137 -6.64,6.914 -2.89,1.778 -6.59,2.668 -11.1,2.668 z m 0,-156.652 c -9.08,0 -16.33,1.535 -21.76,4.601 -5.44,3.075 -9.57,6.836 -12.42,11.278 -2.83,4.445 -4.74,9.094 -5.7,13.945 -0.98,4.856 -1.54,9.055 -1.7,12.609 -0.82,16.004 -1.21,31.317 -1.21,45.958 0,14.628 0.39,29.863 1.21,45.71 0.16,3.555 0.72,7.754 1.7,12.61 0.96,4.851 2.87,9.453 5.7,13.816 2.85,4.367 6.98,8.047 12.42,11.035 5.43,2.989 12.68,4.493 21.76,4.493 9.08,0 16.33,-1.504 21.76,-4.493 5.45,-2.988 9.57,-6.668 12.42,-11.035 2.83,-4.363 4.73,-8.965 5.71,-13.816 0.97,-4.856 1.54,-9.055 1.69,-12.61 0.83,-15.847 1.22,-31.082 1.22,-45.71 0,-14.641 -0.39,-29.954 -1.22,-45.958 -0.15,-3.554 -0.72,-7.753 -1.69,-12.609 -0.98,-4.851 -2.88,-9.5 -5.71,-13.945 -2.85,-4.442 -6.97,-8.203 -12.42,-11.278 -5.43,-3.066 -12.68,-4.601 -21.76,-4.601"
               style="fill:#404344;fill-opacity:1;fill-rule:nonzero;stroke:none"
               id="path1394" />
            <path
               d="m 1220.47,691.387 h 16.01 c 4.69,0 8.52,0.207 11.53,0.605 2.99,0.41 5.6,1.504 7.87,3.293 1.62,1.141 2.91,2.313 3.89,3.535 0.97,1.211 1.77,2.598 2.42,4.141 0.64,1.543 1.09,3.406 1.33,5.605 0.25,2.188 0.37,4.911 0.37,8.164 0,6.817 -0.73,12.059 -2.19,15.711 -1.45,3.653 -3.48,6.368 -6.06,8.157 -1.3,0.808 -2.59,1.425 -3.88,1.824 -1.29,0.41 -3.15,0.695 -5.57,0.859 -2.44,0.157 -5.66,0.246 -9.71,0.246 -4.04,0 -9.37,0 -16.01,0 z m 65.23,-94.09 c 0.34,-0.969 0.18,-2.141 -0.47,-3.516 -0.66,-1.379 -2.03,-2.062 -4.14,-2.062 h -9.68 c -1.62,0 -2.91,0.363 -3.89,1.094 -0.96,0.722 -1.78,2.218 -2.42,4.484 l -23.03,74.93 -21.6,-0.243 v -74.687 c 0,-1.301 -0.47,-2.551 -1.45,-3.762 -0.97,-1.211 -2.34,-1.816 -4.12,-1.816 h -8.24 c -1.62,0 -2.95,0.605 -4,1.816 -1.06,1.211 -1.59,2.461 -1.59,3.762 v 160.047 c 0,1.621 0.61,2.949 1.82,4.004 1.21,1.047 2.46,1.574 3.77,1.574 H 1236 c 9.53,0 17.57,-0.813 24.12,-2.422 6.56,-1.621 11.68,-5.254 15.41,-10.91 2.75,-4.043 4.72,-8.692 5.93,-13.945 1.22,-5.254 1.82,-11.602 1.82,-19.043 0,-11.629 -1.62,-20.528 -4.84,-26.668 -3.24,-6.145 -8.89,-10.832 -16.98,-14.063 l 24.24,-78.574"
               style="fill:#404344;fill-opacity:1;fill-rule:nonzero;stroke:none"
               id="path1396" />
            <path
               d="m 1340.27,735.285 h -0.97 l 2.91,-74.941 v -62.805 c 0,-1.453 -0.49,-2.793 -1.45,-4.004 -0.97,-1.211 -2.34,-1.816 -4.12,-1.816 h -8.01 c -1.77,0 -3.2,0.605 -4.24,1.816 -1.05,1.211 -1.58,2.551 -1.58,4.004 v 159.805 c 0,1.301 0.53,2.551 1.58,3.761 1.04,1.211 2.47,1.817 4.24,1.817 h 15.28 c 1.77,0 3.06,-0.481 3.88,-1.457 0.8,-0.965 1.37,-2.344 1.7,-4.121 l 18.67,-76.864 4.61,-26.679 h 0.96 l 4.61,26.679 18.67,77.11 c 0.82,3.555 2.68,5.332 5.59,5.332 h 15.51 c 1.77,0 3.16,-0.606 4.14,-1.817 0.95,-1.21 1.44,-2.46 1.44,-3.761 V 597.539 c 0,-1.453 -0.49,-2.793 -1.44,-4.004 -0.98,-1.211 -2.37,-1.816 -4.14,-1.816 h -8.25 c -1.44,0 -2.75,0.605 -3.86,1.816 -1.14,1.211 -1.7,2.551 -1.7,4.004 v 62.805 l 2.91,74.941 h -0.98 l -23.28,-105.734 c -0.33,-1.942 -0.88,-3.399 -1.7,-4.363 -0.8,-0.977 -2.09,-1.458 -3.87,-1.458 h -8.26 c -1.44,0 -2.62,0.52 -3.51,1.575 -0.88,1.054 -1.57,2.461 -2.06,4.246 l -23.28,105.734"
               style="fill:#404344;fill-opacity:1;fill-rule:nonzero;stroke:none"
               id="path1398" />
            <path
               d="m 1516.33,645.07 -9.45,60.137 -3.4,32.742 h -0.98 l -3.4,-32.742 -9.45,-60.137 z m -8.5,117.852 c 2.91,0 4.77,-1.856 5.59,-5.578 l 32.01,-160.047 c 0.31,-1.621 0.08,-2.949 -0.74,-4.004 -0.8,-1.047 -2.09,-1.574 -3.87,-1.574 h -9.45 c -3.24,0 -5.18,1.855 -5.82,5.578 l -6.08,28.367 h -33.22 l -5.82,-28.367 c -0.64,-3.723 -2.58,-5.578 -5.82,-5.578 h -9.45 c -1.78,0 -3.07,0.527 -3.89,1.574 -0.8,1.055 -1.06,2.383 -0.72,4.004 l 32.01,160.047 c 0.33,1.621 0.88,2.949 1.7,4.004 0.8,1.047 2.09,1.574 3.88,1.574 h 9.69"
               style="fill:#404344;fill-opacity:1;fill-rule:nonzero;stroke:none"
               id="path1400" />
            <path
               d="m 1645.1,749.102 c 0,-1.622 -0.61,-2.95 -1.82,-4.004 -1.23,-1.055 -2.56,-1.571 -4,-1.571 h -27.4 V 597.539 c 0,-1.453 -0.49,-2.793 -1.47,-4.004 -0.96,-1.211 -2.34,-1.816 -4.12,-1.816 h -8.24 c -1.62,0 -2.95,0.605 -4.01,1.816 -1.05,1.211 -1.58,2.551 -1.58,4.004 v 145.988 h -27.87 c -1.31,0 -2.56,0.516 -3.77,1.571 -1.21,1.054 -1.82,2.382 -1.82,4.004 v 8.242 c 0,1.777 0.61,3.156 1.82,4.121 1.21,0.976 2.46,1.457 3.77,1.457 h 74.69 c 1.44,0 2.77,-0.481 4,-1.457 1.21,-0.965 1.82,-2.344 1.82,-4.121 v -8.242"
               style="fill:#404344;fill-opacity:1;fill-rule:nonzero;stroke:none"
               id="path1402" />
            <path
               d="m 1684.61,591.719 c -1.62,0 -2.95,0.605 -4,1.816 -1.06,1.211 -1.57,2.551 -1.57,4.004 v 159.805 c 0,1.301 0.51,2.551 1.57,3.761 1.05,1.211 2.38,1.817 4,1.817 h 8.24 c 1.78,0 3.17,-0.606 4.12,-1.817 0.98,-1.21 1.47,-2.46 1.47,-3.761 V 597.539 c 0,-1.453 -0.49,-2.793 -1.47,-4.004 -0.95,-1.211 -2.34,-1.816 -4.12,-1.816 h -8.24"
               style="fill:#404344;fill-opacity:1;fill-rule:nonzero;stroke:none"
               id="path1404" />
            <path
               d="m 1783.44,745.949 c -4.67,0 -8.4,-0.89 -11.21,-2.668 -2.82,-1.777 -4.98,-4.082 -6.53,-6.914 -1.52,-2.832 -2.59,-6.062 -3.24,-9.695 -0.64,-3.633 -1.05,-7.317 -1.21,-11.035 -0.82,-13.254 -1.13,-25.91 -0.98,-37.949 0.16,-12.051 0.49,-24.778 0.98,-38.196 0.16,-3.719 0.53,-7.441 1.07,-11.152 0.57,-3.719 1.66,-7.031 3.27,-9.942 1.6,-2.91 3.82,-5.261 6.64,-7.039 2.81,-1.777 6.54,-2.668 11.21,-2.668 4.51,0 8.2,0.891 11.09,2.668 2.89,1.778 5.16,4.129 6.76,7.039 1.6,2.911 2.69,6.223 3.24,9.942 0.57,3.711 0.94,7.433 1.1,11.152 0.48,13.418 0.8,26.145 0.97,38.196 0.16,12.039 -0.17,24.695 -0.97,37.949 -0.16,3.718 -0.57,7.402 -1.22,11.035 -0.64,3.633 -1.71,6.863 -3.24,9.695 -1.54,2.832 -3.75,5.137 -6.64,6.914 -2.89,1.778 -6.58,2.668 -11.09,2.668 z m 0,-156.652 c -9.08,0 -16.33,1.535 -21.76,4.601 -5.45,3.075 -9.57,6.836 -12.42,11.278 -2.83,4.445 -4.75,9.094 -5.71,13.945 -0.97,4.856 -1.54,9.055 -1.69,12.609 -0.82,16.004 -1.22,31.317 -1.22,45.958 0,14.628 0.4,29.863 1.22,45.71 0.15,3.555 0.72,7.754 1.69,12.61 0.96,4.851 2.88,9.453 5.71,13.816 2.85,4.367 6.97,8.047 12.42,11.035 5.43,2.989 12.68,4.493 21.76,4.493 9.08,0 16.33,-1.504 21.76,-4.493 5.44,-2.988 9.57,-6.668 12.42,-11.035 2.83,-4.363 4.72,-8.965 5.7,-13.816 0.98,-4.856 1.54,-9.055 1.7,-12.61 0.82,-15.847 1.21,-31.082 1.21,-45.71 0,-14.641 -0.39,-29.954 -1.21,-45.958 -0.16,-3.554 -0.72,-7.753 -1.7,-12.609 -0.98,-4.851 -2.87,-9.5 -5.7,-13.945 -2.85,-4.442 -6.98,-8.203 -12.42,-11.278 -5.43,-3.066 -12.68,-4.601 -21.76,-4.601"
               style="fill:#404344;fill-opacity:1;fill-rule:nonzero;stroke:none"
               id="path1406" />
            <path
               d="m 1880.55,732.852 3.88,-51.161 v -84.152 c 0,-1.453 -0.48,-2.793 -1.46,-4.004 -0.96,-1.211 -2.34,-1.816 -4.12,-1.816 h -8.24 c -1.63,0 -2.95,0.566 -4.01,1.699 -1.05,1.125 -1.56,2.5 -1.56,4.121 v 159.805 c 0,1.457 0.51,2.754 1.56,3.886 1.06,1.125 2.38,1.692 4.01,1.692 h 14.55 c 1.77,0 3.02,-0.606 3.77,-1.817 0.72,-1.21 1.32,-2.46 1.81,-3.761 l 45.59,-135.555 -3.63,48.738 v 86.575 c 0,1.453 0.48,2.793 1.44,4.003 0.98,1.211 2.34,1.817 4.12,1.817 h 8.24 c 1.63,0 2.95,-0.567 4.01,-1.692 1.05,-1.132 1.58,-2.507 1.58,-4.128 V 597.297 c 0,-1.457 -0.53,-2.754 -1.58,-3.879 -1.06,-1.133 -2.38,-1.699 -4.01,-1.699 h -14.53 c -1.79,0 -3.08,0.605 -3.88,1.816 -0.82,1.211 -1.39,2.461 -1.7,3.762 l -45.84,135.555"
               style="fill:#404344;fill-opacity:1;fill-rule:nonzero;stroke:none"
               id="path1408" />
            <path
               d="m 2137.11,718.789 c 0,-1.621 -0.47,-2.949 -1.45,-4.004 -0.97,-1.055 -2.34,-1.57 -4.12,-1.57 h -8.24 c -1.62,0 -2.95,0.515 -4,1.57 -1.06,1.055 -1.59,2.383 -1.59,4.004 v 3.399 c 0,2.91 -0.33,5.773 -0.97,8.605 -0.65,2.832 -1.74,5.371 -3.26,7.637 -1.55,2.265 -3.56,4.082 -6.08,5.457 -2.5,1.379 -5.6,2.062 -9.33,2.062 -4.85,0 -8.69,-0.812 -11.51,-2.422 -2.83,-1.621 -5.06,-3.761 -6.68,-6.425 -1.62,-2.668 -2.69,-5.782 -3.26,-9.336 -0.57,-3.567 -0.94,-7.2 -1.09,-10.918 -0.49,-7.278 -0.86,-14.102 -1.1,-20.489 -0.25,-6.386 -0.41,-12.609 -0.48,-18.671 -0.08,-6.067 0,-12.208 0.23,-18.43 0.25,-6.231 0.61,-12.82 1.09,-19.766 0.16,-3.719 0.57,-7.39 1.21,-11.035 0.65,-3.633 1.78,-6.914 3.38,-9.824 1.6,-2.91 3.85,-5.293 6.76,-7.149 2.89,-1.863 6.74,-2.793 11.56,-2.793 4.03,0 7.41,0.813 10.14,2.434 2.73,1.609 4.9,3.789 6.5,6.543 1.63,2.742 2.78,5.859 3.5,9.336 0.72,3.476 1.09,7.07 1.09,10.789 v 8.73 c 0,1.614 0.49,2.95 1.47,4.004 0.96,1.047 2.32,1.575 4.12,1.575 h 8.24 c 1.6,0 2.95,-0.528 4.01,-1.575 1.03,-1.054 1.56,-2.39 1.56,-4.004 v -16.492 c 0,-3.554 -0.57,-7.636 -1.7,-12.246 -1.13,-4.601 -3.18,-9.015 -6.17,-13.215 -2.99,-4.207 -7.25,-7.761 -12.74,-10.672 -5.5,-2.902 -12.61,-4.355 -21.34,-4.355 -8.89,0 -15.96,1.531 -21.22,4.598 -5.25,3.078 -9.29,6.797 -12.12,11.164 -2.84,4.363 -4.73,8.847 -5.71,13.457 -0.95,4.609 -1.52,8.445 -1.7,11.511 -0.64,8.254 -1.13,16.211 -1.44,23.887 -0.33,7.676 -0.49,15.324 -0.49,22.922 0,7.598 0.12,15.234 0.37,22.91 0.24,7.684 0.68,15.567 1.33,23.653 0.16,3.554 0.7,7.714 1.6,12.48 0.9,4.773 2.81,9.336 5.76,13.699 2.95,4.367 7.27,8.047 12.95,11.035 5.7,2.989 13.4,4.493 23.11,4.493 7.91,0 14.33,-1.414 19.27,-4.247 4.93,-2.832 8.75,-6.222 11.51,-10.187 2.75,-3.965 4.61,-8.125 5.58,-12.488 0.98,-4.367 1.45,-8.086 1.45,-11.153 v -8.488"
               style="fill:#404344;fill-opacity:1;fill-rule:nonzero;stroke:none"
               id="path1410" />
            <path
               d="m 2248.18,597.297 c 0,-1.621 -0.6,-2.949 -1.81,-4.004 -1.23,-1.047 -2.56,-1.574 -4.01,-1.574 h -63.79 c -1.62,0 -2.94,0.605 -4,1.816 -1.05,1.211 -1.56,2.551 -1.56,4.004 v 159.805 c 0,1.301 0.51,2.551 1.56,3.761 1.06,1.211 2.38,1.817 4,1.817 h 62.09 c 1.45,0 2.8,-0.481 4.01,-1.457 1.21,-0.965 1.81,-2.344 1.81,-4.121 v -8.242 c 0,-1.622 -0.6,-2.95 -1.81,-4.004 -1.21,-1.055 -2.56,-1.571 -4.01,-1.571 h -48.26 v -53.593 h 41.47 c 1.46,0 2.79,-0.489 4,-1.457 1.21,-0.965 1.82,-2.344 1.82,-4.122 v -8.242 c 0,-1.621 -0.61,-2.957 -1.82,-4.004 -1.21,-1.054 -2.54,-1.582 -4,-1.582 h -41.47 v -59.402 h 49.96 c 1.45,0 2.78,-0.488 4.01,-1.457 1.21,-0.977 1.81,-2.352 1.81,-4.129 v -8.242"
               style="fill:#404344;fill-opacity:1;fill-rule:nonzero;stroke:none"
               id="path1412" />
            <path
               d="m 2298.13,732.852 3.88,-51.161 v -84.152 c 0,-1.453 -0.49,-2.793 -1.46,-4.004 -0.96,-1.211 -2.35,-1.816 -4.12,-1.816 h -8.25 c -1.62,0 -2.95,0.566 -4,1.699 -1.05,1.125 -1.56,2.5 -1.56,4.121 v 159.805 c 0,1.457 0.51,2.754 1.56,3.886 1.05,1.125 2.38,1.692 4,1.692 h 14.55 c 1.78,0 3.03,-0.606 3.77,-1.817 0.73,-1.21 1.33,-2.46 1.82,-3.761 l 45.59,-135.555 -3.64,48.738 v 86.575 c 0,1.453 0.49,2.793 1.45,4.003 0.98,1.211 2.34,1.817 4.12,1.817 h 8.24 c 1.62,0 2.95,-0.567 4.01,-1.692 1.05,-1.132 1.58,-2.507 1.58,-4.128 V 597.297 c 0,-1.457 -0.53,-2.754 -1.58,-3.879 -1.06,-1.133 -2.39,-1.699 -4.01,-1.699 h -14.53 c -1.8,0 -3.09,0.605 -3.89,1.816 -0.82,1.211 -1.38,2.461 -1.7,3.762 l -45.83,135.555"
               style="fill:#404344;fill-opacity:1;fill-rule:nonzero;stroke:none"
               id="path1414" />
            <path
               d="m 2486.54,749.102 c 0,-1.622 -0.6,-2.95 -1.81,-4.004 -1.21,-1.055 -2.54,-1.571 -4.01,-1.571 h -27.4 V 597.539 c 0,-1.453 -0.49,-2.793 -1.44,-4.004 -0.98,-1.211 -2.35,-1.816 -4.13,-1.816 h -8.26 c -1.6,0 -2.95,0.605 -3.98,1.816 -1.06,1.211 -1.58,2.551 -1.58,4.004 v 145.988 h -27.89 c -1.29,0 -2.54,0.516 -3.75,1.571 -1.22,1.054 -1.84,2.382 -1.84,4.004 v 8.242 c 0,1.777 0.62,3.156 1.84,4.121 1.21,0.976 2.46,1.457 3.75,1.457 h 74.68 c 1.47,0 2.8,-0.481 4.01,-1.457 1.21,-0.965 1.81,-2.344 1.81,-4.121 v -8.242"
               style="fill:#404344;fill-opacity:1;fill-rule:nonzero;stroke:none"
               id="path1416" />
            <path
               d="m 2536.74,691.387 h 16.01 c 4.69,0 8.52,0.207 11.53,0.605 2.99,0.41 5.6,1.504 7.87,3.293 1.62,1.141 2.91,2.313 3.89,3.535 0.97,1.211 1.77,2.598 2.42,4.141 0.64,1.543 1.09,3.406 1.33,5.605 0.25,2.188 0.37,4.911 0.37,8.164 0,6.817 -0.73,12.059 -2.19,15.711 -1.45,3.653 -3.48,6.368 -6.06,8.157 -1.3,0.808 -2.59,1.425 -3.88,1.824 -1.29,0.41 -3.15,0.695 -5.57,0.859 -2.44,0.157 -5.66,0.246 -9.71,0.246 -4.04,0 -9.37,0 -16.01,0 z m 65.23,-94.09 c 0.33,-0.969 0.18,-2.141 -0.47,-3.516 -0.66,-1.379 -2.03,-2.062 -4.14,-2.062 h -9.68 c -1.63,0 -2.91,0.363 -3.89,1.094 -0.96,0.722 -1.78,2.218 -2.42,4.484 l -23.03,74.93 -21.6,-0.243 v -74.687 c 0,-1.301 -0.47,-2.551 -1.45,-3.762 -0.97,-1.211 -2.34,-1.816 -4.12,-1.816 h -8.24 c -1.62,0 -2.95,0.605 -4,1.816 -1.06,1.211 -1.59,2.461 -1.59,3.762 v 160.047 c 0,1.621 0.61,2.949 1.82,4.004 1.21,1.047 2.46,1.574 3.77,1.574 h 29.34 c 9.53,0 17.57,-0.813 24.12,-2.422 6.56,-1.621 11.68,-5.254 15.41,-10.91 2.75,-4.043 4.72,-8.692 5.93,-13.945 1.22,-5.254 1.82,-11.602 1.82,-19.043 0,-11.629 -1.62,-20.528 -4.84,-26.668 -3.25,-6.145 -8.89,-10.832 -16.98,-14.063 l 24.24,-78.574"
               style="fill:#404344;fill-opacity:1;fill-rule:nonzero;stroke:none"
               id="path1418" />
            <path
               d="m 2713.54,597.297 c 0,-1.621 -0.61,-2.949 -1.82,-4.004 -1.23,-1.047 -2.56,-1.574 -4.01,-1.574 h -63.78 c -1.63,0 -2.95,0.605 -4.01,1.816 -1.05,1.211 -1.56,2.551 -1.56,4.004 v 159.805 c 0,1.301 0.51,2.551 1.56,3.761 1.06,1.211 2.38,1.817 4.01,1.817 h 62.09 c 1.44,0 2.79,-0.481 4,-1.457 1.21,-0.965 1.82,-2.344 1.82,-4.121 v -8.242 c 0,-1.622 -0.61,-2.95 -1.82,-4.004 -1.21,-1.055 -2.56,-1.571 -4,-1.571 h -48.27 v -53.593 h 41.47 c 1.46,0 2.79,-0.489 4,-1.457 1.21,-0.965 1.82,-2.344 1.82,-4.122 v -8.242 c 0,-1.621 -0.61,-2.957 -1.82,-4.004 -1.21,-1.054 -2.54,-1.582 -4,-1.582 h -41.47 v -59.402 h 49.96 c 1.45,0 2.78,-0.488 4.01,-1.457 1.21,-0.977 1.82,-2.352 1.82,-4.129 v -8.242"
               style="fill:#404344;fill-opacity:1;fill-rule:nonzero;stroke:none"
               id="path1420" />
            <path
               d="m 69.5898,382.531 c 0,-1.621 -0.6054,-2.961 -1.8164,-4.004 -1.2109,-1.054 -2.5586,-1.582 -4.0039,-1.582 H 22.3086 v -72.988 c 0,-1.457 -0.4883,-2.793 -1.4453,-4.004 -0.9766,-1.211 -2.3438,-1.816 -4.1211,-1.816 H 8.48047 c -1.60156,0 -2.94922,0.605 -3.98438,1.816 -1.05468,1.211 -1.58203,2.547 -1.58203,4.004 v 159.805 c 0,1.297 0.52735,2.547 1.58203,3.758 1.03516,1.21 2.38282,1.816 3.98438,1.816 H 70.5664 c 1.4453,0 2.7734,-0.477 4.0039,-1.453 1.211,-0.969 1.8164,-2.344 1.8164,-4.121 v -8.242 c 0,-1.622 -0.6054,-2.95 -1.8164,-4.004 -1.2305,-1.055 -2.5586,-1.575 -4.0039,-1.575 H 22.3086 v -53.593 h 41.4609 c 1.4453,0 2.793,-0.489 4.0039,-1.453 1.211,-0.969 1.8164,-2.344 1.8164,-4.122 v -8.242"
               style="fill:#404344;fill-opacity:1;fill-rule:nonzero;stroke:none"
               id="path1422" />
            <path
               d="m 145.605,452.363 c -4.667,0 -8.398,-0.886 -11.21,-2.664 -2.813,-1.777 -4.981,-4.082 -6.524,-6.914 -1.523,-2.832 -2.598,-6.066 -3.242,-9.699 -0.645,-3.633 -1.055,-7.313 -1.211,-11.035 -0.801,-13.25 -1.133,-25.906 -0.977,-37.949 0.176,-12.051 0.489,-24.774 0.977,-38.192 0.156,-3.722 0.527,-7.441 1.094,-11.152 0.547,-3.723 1.64,-7.031 3.242,-9.942 1.621,-2.91 3.828,-5.265 6.641,-7.043 2.812,-1.777 6.543,-2.664 11.21,-2.664 4.512,0 8.204,0.887 11.094,2.664 2.891,1.778 5.156,4.133 6.758,7.043 1.602,2.911 2.695,6.219 3.262,9.942 0.547,3.711 0.918,7.43 1.074,11.152 0.488,13.418 0.82,26.141 0.977,38.192 0.156,12.043 -0.157,24.699 -0.977,37.949 -0.156,3.722 -0.566,7.402 -1.211,11.035 -0.644,3.633 -1.719,6.867 -3.242,9.699 -1.524,2.832 -3.75,5.137 -6.641,6.914 -2.89,1.778 -6.582,2.664 -11.094,2.664 z m 0,-156.648 c -9.082,0 -16.328,1.531 -21.757,4.598 -5.45,3.078 -9.571,6.835 -12.422,11.281 -2.832,4.441 -4.727,9.09 -5.703,13.945 -0.977,4.852 -1.543,9.051 -1.7,12.606 -0.82,16.007 -1.21,31.32 -1.21,45.957 0,14.628 0.39,29.863 1.21,45.714 0.157,3.555 0.723,7.754 1.7,12.606 0.976,4.855 2.871,9.453 5.703,13.82 2.851,4.363 6.972,8.047 12.422,11.035 5.429,2.989 12.675,4.493 21.757,4.493 9.083,0 16.329,-1.504 21.778,-4.493 5.43,-2.988 9.551,-6.672 12.402,-11.035 2.832,-4.367 4.746,-8.965 5.703,-13.82 0.977,-4.852 1.543,-9.051 1.719,-12.606 0.801,-15.851 1.211,-31.086 1.211,-45.714 0,-14.637 -0.41,-29.95 -1.211,-45.957 -0.176,-3.555 -0.742,-7.754 -1.719,-12.606 -0.957,-4.855 -2.871,-9.504 -5.703,-13.945 -2.851,-4.446 -6.972,-8.203 -12.402,-11.281 -5.449,-3.067 -12.695,-4.598 -21.778,-4.598"
               style="fill:#404344;fill-opacity:1;fill-rule:nonzero;stroke:none"
               id="path1424" />
            <path
               d="m 246.602,397.805 h 16.015 c 4.688,0 8.516,0.203 11.524,0.605 2.988,0.41 5.605,1.504 7.871,3.289 1.621,1.145 2.91,2.317 3.886,3.535 0.957,1.211 1.778,2.598 2.422,4.141 0.645,1.543 1.094,3.41 1.328,5.605 0.254,2.188 0.372,4.915 0.372,8.165 0,6.816 -0.723,12.062 -2.188,15.714 -1.445,3.653 -3.477,6.368 -6.055,8.153 -1.308,0.812 -2.597,1.426 -3.886,1.828 -1.289,0.41 -3.145,0.691 -5.586,0.859 -2.422,0.156 -5.645,0.242 -9.688,0.242 -4.043,0 -9.375,0 -16.015,0 z m 65.234,-94.094 c 0.332,-0.965 0.156,-2.137 -0.488,-3.516 -0.645,-1.375 -2.012,-2.058 -4.121,-2.058 h -9.688 c -1.621,0 -2.91,0.359 -3.887,1.093 -0.976,0.723 -1.777,2.215 -2.422,4.481 l -23.046,74.934 -21.582,-0.247 v -74.687 c 0,-1.297 -0.469,-2.547 -1.446,-3.758 -0.976,-1.211 -2.343,-1.816 -4.121,-1.816 h -8.242 c -1.621,0 -2.949,0.605 -4.004,1.816 -1.055,1.211 -1.582,2.461 -1.582,3.758 v 160.051 c 0,1.621 0.606,2.949 1.816,4.004 1.211,1.043 2.461,1.57 3.77,1.57 h 29.336 c 9.531,0 17.578,-0.809 24.121,-2.422 6.563,-1.621 11.68,-5.254 15.41,-10.906 2.735,-4.043 4.727,-8.692 5.938,-13.945 1.211,-5.254 1.816,-11.602 1.816,-19.043 0,-11.633 -1.621,-20.528 -4.844,-26.672 -3.242,-6.141 -8.906,-10.828 -16.972,-14.063 l 24.238,-78.574"
               style="fill:#404344;fill-opacity:1;fill-rule:nonzero;stroke:none"
               id="path1426" />
            <path
               d="m 487.656,345.422 c 0,-16.652 -3.808,-29.102 -11.406,-37.344 -7.598,-8.242 -18.262,-12.363 -32.012,-12.363 -8.574,0 -15.605,1.453 -21.093,4.363 -5.489,2.91 -9.903,6.789 -13.223,11.641 -3.301,4.844 -5.606,10.422 -6.895,16.73 -1.308,6.309 -1.953,12.852 -1.953,19.637 v 2.434 c 0,1.609 0.489,2.949 1.465,3.992 0.957,1.054 2.344,1.582 4.121,1.582 h 8.477 c 1.621,0 2.91,-0.528 3.886,-1.582 0.977,-1.043 1.465,-2.383 1.465,-3.992 v -2.668 c 0,-6.473 0.625,-11.805 1.934,-16.004 1.289,-4.211 3.027,-7.559 5.215,-10.071 2.187,-2.507 4.687,-4.238 7.519,-5.214 2.813,-0.965 5.86,-1.454 9.082,-1.454 7.11,0 12.891,2.137 17.344,6.426 4.453,4.285 6.66,11.766 6.66,22.43 0,5.988 -1.562,11.164 -4.726,15.519 -3.145,4.364 -7.149,8.407 -11.993,12.129 -4.863,3.719 -10.039,7.391 -15.527,11.035 -5.488,3.633 -10.664,7.715 -15.508,12.247 -4.863,4.519 -8.867,9.734 -12.011,15.644 -3.145,5.899 -4.727,12.969 -4.727,21.211 0,5.176 0.84,10.184 2.539,15.039 1.699,4.852 4.199,9.129 7.52,12.852 3.32,3.718 7.48,6.668 12.48,8.847 5.02,2.188 10.84,3.282 17.461,3.282 6.641,0 12.422,-1.094 17.344,-3.282 4.941,-2.179 9.062,-5.09 12.363,-8.722 3.32,-3.641 5.82,-7.801 7.52,-12.489 1.699,-4.699 2.558,-9.464 2.558,-14.308 v -1.699 c 0,-1.622 -0.527,-2.95 -1.582,-4.004 -1.055,-1.055 -2.461,-1.571 -4.238,-1.571 h -8.008 c -1.621,0 -2.949,0.606 -4.004,1.817 -1.055,1.211 -1.582,2.461 -1.582,3.758 v 0.48 c 0,5.984 -1.816,10.918 -5.449,14.793 -3.633,3.879 -8.535,5.82 -14.668,5.82 -3.887,0 -7.109,-0.566 -9.707,-1.699 -2.578,-1.133 -4.727,-2.664 -6.426,-4.598 -1.699,-1.945 -2.91,-4.171 -3.633,-6.671 -0.722,-2.508 -1.093,-5.059 -1.093,-7.645 0,-5.82 1.582,-10.871 4.726,-15.156 3.164,-4.278 7.149,-8.36 12.012,-12.246 4.844,-3.879 10.019,-7.676 15.508,-11.399 5.507,-3.719 10.683,-7.801 15.527,-12.246 4.844,-4.441 8.848,-9.492 12.012,-15.156 3.144,-5.652 4.726,-12.363 4.726,-20.125"
               style="fill:#404344;fill-opacity:1;fill-rule:nonzero;stroke:none"
               id="path1428" />
            <path
               d="m 599.434,425.207 c 0,-1.621 -0.469,-2.949 -1.446,-4.004 -0.976,-1.055 -2.343,-1.574 -4.121,-1.574 h -8.242 c -1.621,0 -2.949,0.519 -4.004,1.574 -1.055,1.055 -1.582,2.383 -1.582,4.004 v 3.398 c 0,2.911 -0.332,5.77 -0.976,8.602 -0.645,2.832 -1.739,5.371 -3.262,7.637 -1.543,2.265 -3.555,4.082 -6.074,5.461 -2.5,1.375 -5.606,2.058 -9.336,2.058 -4.844,0 -8.692,-0.808 -11.504,-2.422 -2.832,-1.621 -5.059,-3.757 -6.68,-6.425 -1.621,-2.664 -2.695,-5.782 -3.262,-9.336 -0.566,-3.563 -0.937,-7.196 -1.093,-10.918 -0.489,-7.274 -0.86,-14.102 -1.094,-20.489 -0.254,-6.386 -0.41,-12.605 -0.488,-18.671 -0.079,-6.063 0,-12.207 0.234,-18.426 0.254,-6.231 0.605,-12.824 1.094,-19.766 0.156,-3.722 0.566,-7.394 1.211,-11.035 0.644,-3.633 1.777,-6.914 3.379,-9.824 1.601,-2.91 3.847,-5.293 6.757,-7.149 2.891,-1.867 6.739,-2.793 11.563,-2.793 4.023,0 7.402,0.809 10.137,2.43 2.734,1.613 4.902,3.789 6.503,6.543 1.622,2.746 2.774,5.859 3.497,9.336 0.722,3.477 1.093,7.07 1.093,10.793 v 8.73 c 0,1.61 0.489,2.95 1.465,4.004 0.957,1.043 2.324,1.571 4.121,1.571 h 8.242 c 1.602,0 2.95,-0.528 4.004,-1.571 1.035,-1.054 1.563,-2.394 1.563,-4.004 v -16.496 c 0,-3.554 -0.567,-7.636 -1.699,-12.246 -1.133,-4.597 -3.184,-9.011 -6.172,-13.211 -2.989,-4.211 -7.246,-7.765 -12.735,-10.675 -5.507,-2.899 -12.617,-4.356 -21.347,-4.356 -8.887,0 -15.957,1.535 -21.211,4.602 -5.254,3.074 -9.297,6.796 -12.129,11.16 -2.832,4.367 -4.727,8.847 -5.703,13.457 -0.957,4.609 -1.524,8.449 -1.699,11.515 -0.645,8.25 -1.133,16.211 -1.446,23.887 -0.332,7.676 -0.488,15.32 -0.488,22.918 0,7.598 0.117,15.234 0.371,22.91 0.234,7.688 0.684,15.567 1.328,23.653 0.156,3.554 0.703,7.714 1.602,12.48 0.898,4.777 2.812,9.336 5.761,13.703 2.95,4.363 7.266,8.047 12.95,11.035 5.703,2.989 13.398,4.493 23.105,4.493 7.91,0 14.336,-1.418 19.277,-4.25 4.922,-2.832 8.75,-6.219 11.504,-10.184 2.754,-3.965 4.61,-8.125 5.586,-12.492 0.977,-4.364 1.446,-8.086 1.446,-11.153 v -8.484"
               style="fill:#404344;fill-opacity:1;fill-rule:nonzero;stroke:none"
               id="path1430" />
            <path
               d="m 644.063,298.137 c -1.622,0 -2.95,0.605 -4.004,1.816 -1.055,1.211 -1.563,2.547 -1.563,4.004 v 159.805 c 0,1.297 0.508,2.547 1.563,3.758 1.054,1.21 2.382,1.816 4.004,1.816 h 8.242 c 1.777,0 3.164,-0.606 4.121,-1.816 0.976,-1.211 1.465,-2.461 1.465,-3.758 V 303.957 c 0,-1.457 -0.489,-2.793 -1.465,-4.004 -0.957,-1.211 -2.344,-1.816 -4.121,-1.816 h -8.242"
               style="fill:#404344;fill-opacity:1;fill-rule:nonzero;stroke:none"
               id="path1432" />
            <path
               d="m 780.84,303.711 c 0,-1.621 -0.606,-2.949 -1.817,-4.004 -1.23,-1.043 -2.558,-1.57 -4.003,-1.57 h -63.79 c -1.621,0 -2.949,0.605 -4.003,1.816 -1.055,1.211 -1.563,2.547 -1.563,4.004 v 159.805 c 0,1.297 0.508,2.547 1.563,3.758 1.054,1.21 2.382,1.816 4.003,1.816 h 62.09 c 1.446,0 2.793,-0.477 4.004,-1.453 1.211,-0.969 1.817,-2.344 1.817,-4.121 v -8.242 c 0,-1.622 -0.606,-2.95 -1.817,-4.004 -1.211,-1.055 -2.558,-1.575 -4.004,-1.575 h -48.261 v -53.593 h 41.464 c 1.465,0 2.793,-0.489 4.004,-1.453 1.211,-0.969 1.817,-2.344 1.817,-4.122 v -8.242 c 0,-1.621 -0.606,-2.961 -1.817,-4.004 -1.211,-1.054 -2.539,-1.582 -4.004,-1.582 h -41.464 v -59.406 h 49.961 c 1.445,0 2.773,-0.488 4.003,-1.453 1.211,-0.977 1.817,-2.356 1.817,-4.133 v -8.242"
               style="fill:#404344;fill-opacity:1;fill-rule:nonzero;stroke:none"
               id="path1434" />
            <path
               d="m 830.781,439.27 3.887,-51.165 v -84.148 c 0,-1.457 -0.488,-2.793 -1.465,-4.004 -0.957,-1.211 -2.344,-1.816 -4.121,-1.816 h -8.242 c -1.621,0 -2.949,0.566 -4.004,1.699 -1.055,1.121 -1.563,2.5 -1.563,4.121 v 159.805 c 0,1.453 0.508,2.754 1.563,3.886 1.055,1.122 2.383,1.688 4.004,1.688 h 14.551 c 1.777,0 3.027,-0.606 3.769,-1.816 0.723,-1.211 1.328,-2.461 1.817,-3.758 l 45.586,-135.559 -3.633,48.742 v 86.571 c 0,1.457 0.488,2.793 1.445,4.004 0.977,1.21 2.344,1.816 4.121,1.816 h 8.242 c 1.621,0 2.95,-0.566 4.004,-1.688 1.055,-1.132 1.582,-2.511 1.582,-4.132 V 303.711 c 0,-1.453 -0.527,-2.754 -1.582,-3.875 -1.054,-1.133 -2.383,-1.699 -4.004,-1.699 h -14.531 c -1.797,0 -3.086,0.605 -3.887,1.816 -0.82,1.211 -1.386,2.461 -1.699,3.758 l -45.84,135.559"
               style="fill:#404344;fill-opacity:1;fill-rule:nonzero;stroke:none"
               id="path1436" />
            <path
               d="m 1024.3,425.207 c 0,-1.621 -0.49,-2.949 -1.47,-4.004 -0.95,-1.055 -2.34,-1.574 -4.12,-1.574 h -8.24 c -1.62,0 -2.95,0.519 -4.01,1.574 -1.05,1.055 -1.56,2.383 -1.56,4.004 v 3.398 c 0,2.911 -0.33,5.77 -0.97,8.602 -0.65,2.832 -1.74,5.371 -3.29,7.637 -1.519,2.265 -3.55,4.082 -6.05,5.461 -2.5,1.375 -5.625,2.058 -9.336,2.058 -4.844,0 -8.691,-0.808 -11.524,-2.422 -2.832,-1.621 -5.058,-3.757 -6.66,-6.425 -1.621,-2.664 -2.715,-5.782 -3.281,-9.336 -0.566,-3.563 -0.937,-7.196 -1.094,-10.918 -0.488,-7.274 -0.84,-14.102 -1.093,-20.489 -0.235,-6.386 -0.391,-12.605 -0.469,-18.671 -0.098,-6.063 0,-12.207 0.234,-18.426 0.235,-6.231 0.606,-12.824 1.094,-19.766 0.156,-3.722 0.566,-7.394 1.211,-11.035 0.625,-3.633 1.758,-6.914 3.359,-9.824 1.621,-2.91 3.867,-5.293 6.758,-7.149 2.891,-1.867 6.758,-2.793 11.582,-2.793 4.024,0 7.383,0.809 10.137,2.43 2.715,1.613 4.902,3.789 6.502,6.543 1.6,2.746 2.78,5.859 3.5,9.336 0.72,3.477 1.09,7.07 1.09,10.793 v 8.73 c 0,1.61 0.47,2.95 1.45,4.004 0.97,1.043 2.34,1.571 4.12,1.571 h 8.24 c 1.62,0 2.95,-0.528 4,-1.571 1.06,-1.054 1.59,-2.394 1.59,-4.004 v -16.496 c 0,-3.554 -0.57,-7.636 -1.7,-12.246 -1.14,-4.597 -3.21,-9.011 -6.19,-13.211 -2.99,-4.211 -7.23,-7.765 -12.74,-10.675 -5.487,-2.899 -12.597,-4.356 -21.327,-4.356 -8.887,0 -15.977,1.535 -21.23,4.602 -5.254,3.074 -9.297,6.796 -12.11,11.16 -2.832,4.367 -4.726,8.847 -5.703,13.457 -0.977,4.609 -1.543,8.449 -1.699,11.515 -0.645,8.25 -1.133,16.211 -1.465,23.887 -0.313,7.676 -0.469,15.32 -0.469,22.918 0,7.598 0.117,15.234 0.352,22.91 0.254,7.688 0.683,15.567 1.347,23.653 0.157,3.554 0.684,7.714 1.582,12.48 0.899,4.777 2.832,9.336 5.782,13.703 2.929,4.363 7.265,8.047 12.949,11.035 5.684,2.989 13.379,4.493 23.086,4.493 7.91,0 14.335,-1.418 19.275,-4.25 4.92,-2.832 8.77,-6.219 11.53,-10.184 2.73,-3.965 4.61,-8.125 5.56,-12.492 0.98,-4.364 1.47,-8.086 1.47,-11.153 v -8.484"
               style="fill:#404344;fill-opacity:1;fill-rule:nonzero;stroke:none"
               id="path1438" />
            <path
               d="m 1135.35,303.711 c 0,-1.621 -0.6,-2.949 -1.81,-4.004 -1.22,-1.043 -2.54,-1.57 -4.01,-1.57 h -63.77 c -1.62,0 -2.95,0.605 -4,1.816 -1.06,1.211 -1.58,2.547 -1.58,4.004 v 159.805 c 0,1.297 0.52,2.547 1.58,3.758 1.05,1.21 2.38,1.816 4,1.816 h 62.07 c 1.47,0 2.8,-0.477 4.01,-1.453 1.21,-0.969 1.81,-2.344 1.81,-4.121 v -8.242 c 0,-1.622 -0.6,-2.95 -1.81,-4.004 -1.21,-1.055 -2.54,-1.575 -4.01,-1.575 h -48.26 v -53.593 h 41.48 c 1.45,0 2.78,-0.489 3.99,-1.453 1.23,-0.969 1.84,-2.344 1.84,-4.122 v -8.242 c 0,-1.621 -0.61,-2.961 -1.84,-4.004 -1.21,-1.054 -2.54,-1.582 -3.99,-1.582 h -41.48 v -59.406 h 49.96 c 1.47,0 2.79,-0.488 4.01,-1.453 1.21,-0.977 1.81,-2.356 1.81,-4.133 v -8.242"
               style="fill:#404344;fill-opacity:1;fill-rule:nonzero;stroke:none"
               id="path1440" />
            <path
               d="m 1274.79,351.484 -9.45,60.137 -3.4,32.746 h -0.97 l -3.4,-32.746 -9.45,-60.137 z m -8.49,117.852 c 2.91,0 4.76,-1.856 5.58,-5.574 l 32.02,-160.051 c 0.31,-1.621 0.07,-2.949 -0.75,-4.004 -0.8,-1.043 -2.09,-1.57 -3.86,-1.57 h -9.46 c -3.24,0 -5.17,1.855 -5.82,5.574 l -6.07,28.371 h -33.22 l -5.82,-28.371 c -0.65,-3.719 -2.58,-5.574 -5.82,-5.574 h -9.46 c -1.77,0 -3.06,0.527 -3.88,1.57 -0.8,1.055 -1.06,2.383 -0.73,4.004 l 32.02,160.051 c 0.33,1.621 0.87,2.949 1.69,4.004 0.81,1.043 2.09,1.57 3.89,1.57 h 9.69"
               style="fill:#404344;fill-opacity:1;fill-rule:nonzero;stroke:none"
               id="path1442" />
            <path
               d="m 1355.54,439.27 3.88,-51.165 v -84.148 c 0,-1.457 -0.48,-2.793 -1.46,-4.004 -0.96,-1.211 -2.34,-1.816 -4.12,-1.816 h -8.24 c -1.63,0 -2.95,0.566 -4.01,1.699 -1.05,1.121 -1.56,2.5 -1.56,4.121 v 159.805 c 0,1.453 0.51,2.754 1.56,3.886 1.06,1.122 2.38,1.688 4.01,1.688 h 14.55 c 1.77,0 3.02,-0.606 3.77,-1.816 0.72,-1.211 1.32,-2.461 1.81,-3.758 l 45.59,-135.559 -3.63,48.742 v 86.571 c 0,1.457 0.48,2.793 1.44,4.004 0.98,1.21 2.34,1.816 4.12,1.816 h 8.24 c 1.63,0 2.95,-0.566 4.01,-1.688 1.05,-1.132 1.58,-2.511 1.58,-4.132 V 303.711 c 0,-1.453 -0.53,-2.754 -1.58,-3.875 -1.06,-1.133 -2.38,-1.699 -4.01,-1.699 h -14.53 c -1.79,0 -3.08,0.605 -3.88,1.816 -0.82,1.211 -1.39,2.461 -1.7,3.758 l -45.84,135.559"
               style="fill:#404344;fill-opacity:1;fill-rule:nonzero;stroke:none"
               id="path1444" />
            <path
               d="m 1491.1,317.539 h 22.8 c 4.84,0 8.69,0.723 11.52,2.18 2.83,1.453 5.04,3.476 6.66,6.062 1.62,2.578 2.71,5.539 3.28,8.848 0.57,3.312 1.1,6.828 1.58,10.547 1.6,13.742 2.31,26.836 2.05,39.289 -0.23,12.449 -1.09,25.223 -2.53,38.32 -0.49,3.555 -1.02,6.992 -1.59,10.301 -0.56,3.312 -1.66,6.223 -3.28,8.73 -1.6,2.5 -3.79,4.485 -6.54,5.938 -2.76,1.457 -6.54,2.187 -11.39,2.187 h -22.56 z m -19.39,146.223 c 0,1.297 0.51,2.547 1.56,3.758 1.06,1.21 2.38,1.816 4.01,1.816 h 37.34 c 8.89,0 15.98,-1.328 21.23,-3.992 5.25,-2.668 9.24,-5.949 11.99,-9.824 2.76,-3.879 4.61,-7.969 5.59,-12.247 0.97,-4.289 1.7,-7.968 2.19,-11.035 2.24,-16.172 3.34,-32.09 3.26,-47.773 -0.08,-15.684 -1.02,-31.692 -2.8,-48.02 -0.31,-3.554 -0.95,-7.558 -1.93,-12 -0.98,-4.445 -2.91,-8.605 -5.82,-12.492 -2.91,-3.875 -7.19,-7.148 -12.85,-9.812 -5.67,-2.668 -13.34,-4.004 -23.03,-4.004 h -35.17 c -1.63,0 -2.95,0.605 -4.01,1.816 -1.05,1.211 -1.56,2.547 -1.56,4.004 v 159.805"
               style="fill:#404344;fill-opacity:1;fill-rule:nonzero;stroke:none"
               id="path1446" />
            <path
               d="m 1715.24,455.52 c 0,-1.622 -0.6,-2.95 -1.81,-4.004 -1.23,-1.055 -2.56,-1.575 -4.01,-1.575 h -27.4 V 303.957 c 0,-1.457 -0.49,-2.793 -1.46,-4.004 -0.96,-1.211 -2.35,-1.816 -4.12,-1.816 h -8.25 c -1.62,0 -2.95,0.605 -4,1.816 -1.06,1.211 -1.58,2.547 -1.58,4.004 v 145.984 h -27.87 c -1.31,0 -2.56,0.52 -3.77,1.575 -1.21,1.054 -1.82,2.382 -1.82,4.004 v 8.242 c 0,1.777 0.61,3.152 1.82,4.121 1.21,0.976 2.46,1.453 3.77,1.453 h 74.68 c 1.45,0 2.78,-0.477 4.01,-1.453 1.21,-0.969 1.81,-2.344 1.81,-4.121 v -8.242"
               style="fill:#404344;fill-opacity:1;fill-rule:nonzero;stroke:none"
               id="path1448" />
            <path
               d="m 1821.2,303.711 c 0,-1.621 -0.6,-2.949 -1.82,-4.004 -1.21,-1.043 -2.53,-1.57 -4,-1.57 h -63.77 c -1.62,0 -2.95,0.605 -4,1.816 -1.06,1.211 -1.58,2.547 -1.58,4.004 v 159.805 c 0,1.297 0.52,2.547 1.58,3.758 1.05,1.21 2.38,1.816 4,1.816 h 62.07 c 1.47,0 2.79,-0.477 4.01,-1.453 1.21,-0.969 1.81,-2.344 1.81,-4.121 v -8.242 c 0,-1.622 -0.6,-2.95 -1.81,-4.004 -1.22,-1.055 -2.54,-1.575 -4.01,-1.575 h -48.26 v -53.593 h 41.48 c 1.45,0 2.78,-0.489 3.99,-1.453 1.23,-0.969 1.83,-2.344 1.83,-4.122 v -8.242 c 0,-1.621 -0.6,-2.961 -1.83,-4.004 -1.21,-1.054 -2.54,-1.582 -3.99,-1.582 h -41.48 v -59.406 h 49.96 c 1.47,0 2.79,-0.488 4,-1.453 1.22,-0.977 1.82,-2.356 1.82,-4.133 v -8.242"
               style="fill:#404344;fill-opacity:1;fill-rule:nonzero;stroke:none"
               id="path1450" />
            <path
               d="m 1933,425.207 c 0,-1.621 -0.49,-2.949 -1.47,-4.004 -0.95,-1.055 -2.34,-1.574 -4.12,-1.574 h -8.24 c -1.62,0 -2.95,0.519 -4,1.574 -1.06,1.055 -1.57,2.383 -1.57,4.004 v 3.398 c 0,2.911 -0.33,5.77 -0.97,8.602 -0.65,2.832 -1.74,5.371 -3.28,7.637 -1.53,2.265 -3.56,4.082 -6.06,5.461 -2.5,1.375 -5.62,2.058 -9.33,2.058 -4.85,0 -8.7,-0.808 -11.53,-2.422 -2.83,-1.621 -5.06,-3.757 -6.66,-6.425 -1.62,-2.664 -2.71,-5.782 -3.28,-9.336 -0.57,-3.563 -0.94,-7.196 -1.09,-10.918 -0.49,-7.274 -0.84,-14.102 -1.1,-20.489 -0.23,-6.386 -0.39,-12.605 -0.47,-18.671 -0.09,-6.063 0,-12.207 0.24,-18.426 0.23,-6.231 0.6,-12.824 1.09,-19.766 0.16,-3.722 0.57,-7.394 1.21,-11.035 0.63,-3.633 1.76,-6.914 3.36,-9.824 1.62,-2.91 3.87,-5.293 6.76,-7.149 2.89,-1.867 6.76,-2.793 11.58,-2.793 4.03,0 7.39,0.809 10.14,2.43 2.71,1.613 4.9,3.789 6.5,6.543 1.6,2.746 2.78,5.859 3.5,9.336 0.72,3.477 1.09,7.07 1.09,10.793 v 8.73 c 0,1.61 0.47,2.95 1.45,4.004 0.97,1.043 2.34,1.571 4.12,1.571 h 8.24 c 1.62,0 2.95,-0.528 4.01,-1.571 1.05,-1.054 1.58,-2.394 1.58,-4.004 v -16.496 c 0,-3.554 -0.57,-7.636 -1.7,-12.246 -1.13,-4.597 -3.21,-9.011 -6.19,-13.211 -2.99,-4.211 -7.23,-7.765 -12.74,-10.675 -5.49,-2.899 -12.6,-4.356 -21.33,-4.356 -8.88,0 -15.97,1.535 -21.23,4.602 -5.25,3.074 -9.29,6.796 -12.11,11.16 -2.83,4.367 -4.72,8.847 -5.7,13.457 -0.98,4.609 -1.54,8.449 -1.7,11.515 -0.64,8.25 -1.13,16.211 -1.46,23.887 -0.32,7.676 -0.47,15.32 -0.47,22.918 0,7.598 0.12,15.234 0.35,22.91 0.25,7.688 0.68,15.567 1.35,23.653 0.15,3.554 0.68,7.714 1.58,12.48 0.9,4.777 2.83,9.336 5.78,13.703 2.93,4.363 7.27,8.047 12.95,11.035 5.68,2.989 13.38,4.493 23.09,4.493 7.91,0 14.33,-1.418 19.27,-4.25 4.93,-2.832 8.77,-6.219 11.53,-10.184 2.73,-3.965 4.61,-8.125 5.56,-12.492 0.98,-4.364 1.47,-8.086 1.47,-11.153 v -8.484"
               style="fill:#404344;fill-opacity:1;fill-rule:nonzero;stroke:none"
               id="path1452" />
            <path
               d="m 2038.72,298.137 c -1.62,0 -2.95,0.605 -4,1.816 -1.06,1.211 -1.59,2.547 -1.59,4.004 v 72.988 h -44.86 v -72.988 c 0,-1.457 -0.47,-2.793 -1.44,-4.004 -0.98,-1.211 -2.35,-1.816 -4.12,-1.816 h -8.25 c -1.62,0 -2.95,0.605 -4,1.816 -1.06,1.211 -1.58,2.547 -1.58,4.004 v 159.805 c 0,1.297 0.52,2.547 1.58,3.758 1.05,1.21 2.38,1.816 4,1.816 h 8.25 c 1.77,0 3.14,-0.606 4.12,-1.816 0.97,-1.211 1.44,-2.461 1.44,-3.758 v -67.414 h 44.86 v 67.414 c 0,1.297 0.53,2.547 1.59,3.758 1.05,1.21 2.38,1.816 4,1.816 h 8.24 c 1.78,0 3.17,-0.606 4.12,-1.816 0.98,-1.211 1.47,-2.461 1.47,-3.758 V 303.957 c 0,-1.457 -0.49,-2.793 -1.47,-4.004 -0.95,-1.211 -2.34,-1.816 -4.12,-1.816 h -8.24"
               style="fill:#404344;fill-opacity:1;fill-rule:nonzero;stroke:none"
               id="path1454" />
            <path
               d="m 2112.69,439.27 3.86,-51.165 v -84.148 c 0,-1.457 -0.47,-2.793 -1.44,-4.004 -0.98,-1.211 -2.35,-1.816 -4.12,-1.816 h -8.25 c -1.62,0 -2.95,0.566 -4,1.699 -1.05,1.121 -1.58,2.5 -1.58,4.121 v 159.805 c 0,1.453 0.53,2.754 1.58,3.886 1.05,1.122 2.38,1.688 4,1.688 h 14.55 c 1.78,0 3.03,-0.606 3.75,-1.816 0.73,-1.211 1.33,-2.461 1.82,-3.758 l 45.61,-135.559 -3.66,48.742 v 86.571 c 0,1.457 0.49,2.793 1.47,4.004 0.96,1.21 2.34,1.816 4.12,1.816 h 8.24 c 1.62,0 2.95,-0.566 4.01,-1.688 1.05,-1.132 1.58,-2.511 1.58,-4.132 V 303.711 c 0,-1.453 -0.53,-2.754 -1.58,-3.875 -1.06,-1.133 -2.39,-1.699 -4.01,-1.699 h -14.55 c -1.78,0 -3.06,0.605 -3.88,1.816 -0.81,1.211 -1.37,2.461 -1.7,3.758 l -45.82,135.559"
               style="fill:#404344;fill-opacity:1;fill-rule:nonzero;stroke:none"
               id="path1456" />
            <path
               d="m 2266.06,452.363 c -4.66,0 -8.39,-0.886 -11.21,-2.664 -2.81,-1.777 -4.98,-4.082 -6.52,-6.914 -1.52,-2.832 -2.6,-6.066 -3.24,-9.699 -0.65,-3.633 -1.06,-7.313 -1.21,-11.035 -0.82,-13.25 -1.14,-25.906 -0.98,-37.949 0.16,-12.051 0.49,-24.774 0.98,-38.192 0.15,-3.722 0.52,-7.441 1.07,-11.152 0.57,-3.723 1.66,-7.031 3.26,-9.942 1.6,-2.91 3.83,-5.265 6.64,-7.043 2.82,-1.777 6.55,-2.664 11.21,-2.664 4.52,0 8.21,0.887 11.1,2.664 2.89,1.778 5.15,4.133 6.76,7.043 1.6,2.911 2.69,6.219 3.24,9.942 0.56,3.711 0.94,7.43 1.09,11.152 0.49,13.418 0.8,26.141 0.98,38.192 0.15,12.043 -0.18,24.699 -0.98,37.949 -0.15,3.722 -0.56,7.402 -1.21,11.035 -0.64,3.633 -1.72,6.867 -3.24,9.699 -1.54,2.832 -3.75,5.137 -6.64,6.914 -2.89,1.778 -6.58,2.664 -11.1,2.664 z m 0,-156.648 c -9.08,0 -16.32,1.531 -21.75,4.598 -5.45,3.078 -9.57,6.835 -12.43,11.281 -2.83,4.441 -4.74,9.09 -5.7,13.945 -0.97,4.852 -1.54,9.051 -1.7,12.606 -0.82,16.007 -1.21,31.32 -1.21,45.957 0,14.628 0.39,29.863 1.21,45.714 0.16,3.555 0.73,7.754 1.7,12.606 0.96,4.855 2.87,9.453 5.7,13.82 2.86,4.363 6.98,8.047 12.43,11.035 5.43,2.989 12.67,4.493 21.75,4.493 9.09,0 16.33,-1.504 21.76,-4.493 5.45,-2.988 9.57,-6.672 12.42,-11.035 2.84,-4.367 4.73,-8.965 5.71,-13.82 0.97,-4.852 1.54,-9.051 1.7,-12.606 0.82,-15.851 1.21,-31.086 1.21,-45.714 0,-14.637 -0.39,-29.95 -1.21,-45.957 -0.16,-3.555 -0.73,-7.754 -1.7,-12.606 -0.98,-4.855 -2.87,-9.504 -5.71,-13.945 -2.85,-4.446 -6.97,-8.203 -12.42,-11.281 -5.43,-3.067 -12.67,-4.598 -21.76,-4.598"
               style="fill:#404344;fill-opacity:1;fill-rule:nonzero;stroke:none"
               id="path1458" />
            <path
               d="m 2419.44,303.711 c 0,-1.621 -0.6,-2.949 -1.81,-4.004 -1.21,-1.043 -2.56,-1.57 -4.01,-1.57 h -60.39 c -1.62,0 -2.95,0.605 -4,1.816 -1.06,1.211 -1.56,2.547 -1.56,4.004 v 159.805 c 0,1.297 0.5,2.547 1.56,3.758 1.05,1.21 2.38,1.816 4,1.816 h 8.24 c 1.78,0 3.17,-0.606 4.13,-1.816 0.97,-1.211 1.46,-2.461 1.46,-3.758 V 317.539 h 46.56 c 1.45,0 2.8,-0.488 4.01,-1.453 1.21,-0.977 1.81,-2.356 1.81,-4.133 v -8.242"
               style="fill:#404344;fill-opacity:1;fill-rule:nonzero;stroke:none"
               id="path1460" />
            <path
               d="m 2477.04,452.363 c -4.67,0 -8.42,-0.886 -11.23,-2.664 -2.81,-1.777 -4.98,-4.082 -6.5,-6.914 -1.53,-2.832 -2.62,-6.066 -3.27,-9.699 -0.64,-3.633 -1.03,-7.313 -1.21,-11.035 -0.8,-13.25 -1.13,-25.906 -0.95,-37.949 0.15,-12.051 0.49,-24.774 0.95,-38.192 0.18,-3.722 0.53,-7.441 1.1,-11.152 0.56,-3.723 1.64,-7.031 3.26,-9.942 1.6,-2.91 3.81,-5.265 6.62,-7.043 2.81,-1.777 6.56,-2.664 11.23,-2.664 4.49,0 8.18,0.887 11.09,2.664 2.9,1.778 5.14,4.133 6.74,7.043 1.62,2.911 2.7,6.219 3.26,9.942 0.57,3.711 0.92,7.43 1.1,11.152 0.47,13.418 0.8,26.141 0.96,38.192 0.15,12.043 -0.16,24.699 -0.96,37.949 -0.18,3.722 -0.57,7.402 -1.21,11.035 -0.65,3.633 -1.74,6.867 -3.26,9.699 -1.53,2.832 -3.73,5.137 -6.63,6.914 -2.91,1.778 -6.6,2.664 -11.09,2.664 z m 0,-156.648 c -9.08,0 -16.35,1.531 -21.78,4.598 -5.43,3.078 -9.57,6.835 -12.4,11.281 -2.83,4.441 -4.74,9.09 -5.72,13.945 -0.98,4.852 -1.54,9.051 -1.7,12.606 -0.8,16.007 -1.21,31.32 -1.21,45.957 0,14.628 0.41,29.863 1.21,45.714 0.16,3.555 0.72,7.754 1.7,12.606 0.98,4.855 2.89,9.453 5.72,13.82 2.83,4.363 6.97,8.047 12.4,11.035 5.43,2.989 12.7,4.493 21.78,4.493 9.06,0 16.33,-1.504 21.76,-4.493 5.43,-2.988 9.57,-6.672 12.4,-11.035 2.83,-4.367 4.75,-8.965 5.72,-13.82 0.96,-4.852 1.55,-9.051 1.7,-12.606 0.8,-15.851 1.21,-31.086 1.21,-45.714 0,-14.637 -0.41,-29.95 -1.21,-45.957 -0.15,-3.555 -0.74,-7.754 -1.7,-12.606 -0.97,-4.855 -2.89,-9.504 -5.72,-13.945 -2.83,-4.446 -6.97,-8.203 -12.4,-11.281 -5.43,-3.067 -12.7,-4.598 -21.76,-4.598"
               style="fill:#404344;fill-opacity:1;fill-rule:nonzero;stroke:none"
               id="path1462" />
            <path
               d="m 2635.75,391.496 v -87.785 c 0,-1.297 -0.53,-2.547 -1.58,-3.758 -1.05,-1.211 -2.38,-1.816 -4,-1.816 h -7.27 c -1.78,0 -3.07,0.488 -3.89,1.453 -0.8,0.969 -1.29,2.101 -1.44,3.398 l -0.26,1.934 c -3.22,-3.387 -6.69,-5.742 -10.43,-7.031 -3.71,-1.289 -7.67,-1.934 -11.87,-1.934 -8.4,0 -15.16,1.691 -20.25,5.09 -5.08,3.398 -9.09,7.391 -12,12 -2.91,4.609 -4.94,9.336 -6.07,14.191 -1.13,4.844 -1.78,8.809 -1.93,11.883 -1.14,14.551 -1.74,29.258 -1.82,44.133 -0.08,14.871 0.53,29.59 1.82,44.129 0.33,4.531 1.01,9.426 2.07,14.68 1.03,5.253 2.95,10.058 5.68,14.421 2.75,4.368 6.72,8.008 11.89,10.918 5.18,2.911 12.13,4.368 20.86,4.368 9.2,0 16.45,-1.582 21.7,-4.739 5.26,-3.144 9.22,-6.902 11.88,-11.269 2.67,-4.364 4.31,-8.817 4.98,-13.34 0.64,-4.531 0.96,-8.164 0.96,-10.906 v -3.157 c 0,-1.296 -0.49,-2.546 -1.45,-3.757 -0.98,-1.211 -2.27,-1.817 -3.89,-1.817 h -8.47 c -1.8,0 -3.17,0.606 -4.12,1.817 -0.98,1.211 -1.47,2.461 -1.47,3.757 0,2.579 -0.12,5.293 -0.37,8.125 -0.23,2.825 -0.96,5.411 -2.17,7.754 -1.19,2.344 -3.2,4.289 -6.01,5.821 -2.82,1.535 -6.72,2.304 -11.7,2.304 -4.34,0 -7.84,-0.722 -10.49,-2.175 -2.64,-1.458 -4.69,-3.438 -6.15,-5.95 -1.45,-2.508 -2.45,-5.418 -3.01,-8.73 -0.57,-3.309 -1,-6.824 -1.33,-10.547 -1.13,-14.227 -1.62,-28.047 -1.44,-41.465 0.15,-13.418 0.72,-26.836 1.69,-40.254 0.81,-9.707 2.89,-16.816 6.27,-21.336 3.36,-4.531 8.19,-6.797 14.46,-6.797 4.82,0 8.65,0.926 11.46,2.793 2.81,1.856 4.94,4.325 6.39,7.391 1.44,3.066 2.36,6.465 2.77,10.187 0.39,3.719 0.61,7.43 0.61,11.153 v 26.191 h -21.1 c -1.3,0 -2.55,0.528 -3.77,1.582 -1.21,1.043 -1.81,2.383 -1.81,3.992 v 7.52 c 0,1.777 0.6,3.156 1.81,4.121 1.22,0.977 2.47,1.457 3.77,1.457 h 40.49"
               style="fill:#404344;fill-opacity:1;fill-rule:nonzero;stroke:none"
               id="path1464" />
            <path
               d="m 2702.2,298.137 c -1.62,0 -2.95,0.605 -4.01,1.816 -1.05,1.211 -1.58,2.547 -1.58,4.004 v 72.754 l -31.52,87.051 c -0.65,1.453 -0.49,2.754 0.49,3.886 0.95,1.122 2.34,1.688 4.12,1.688 h 10.43 c 1.6,0 2.81,-0.477 3.63,-1.453 0.8,-0.969 1.54,-2.344 2.19,-4.121 l 20.37,-63.047 21.58,63.047 c 0.64,1.777 1.37,3.152 2.17,4.121 0.82,0.976 2.03,1.453 3.65,1.453 h 10.9 c 1.78,0 3.16,-0.566 4.14,-1.688 0.96,-1.132 1.11,-2.433 0.47,-3.886 l -33.22,-87.051 v -72.754 c 0,-1.457 -0.47,-2.793 -1.45,-4.004 -0.98,-1.211 -2.34,-1.816 -4.12,-1.816 h -8.24"
               style="fill:#404344;fill-opacity:1;fill-rule:nonzero;stroke:none"
               id="path1466" />
            <path
               d="m 19.3984,48.2539 c 0,-3.7226 0.2735,-7.2773 0.8594,-10.6641 0.5469,-3.3984 1.6406,-6.4765 3.2617,-9.2187 1.6211,-2.7539 3.8868,-4.9336 6.793,-6.543 2.9102,-1.6211 6.7773,-2.4336 11.6406,-2.4336 4.8438,0 8.7305,0.8125 11.6407,2.4336 2.9101,1.6094 5.1562,3.7891 6.7773,6.543 1.6211,2.7422 2.6758,5.8594 3.1641,9.3359 0.4687,3.4766 0.7226,7.0703 0.7226,10.7891 V 168.047 c 0,1.621 0.4883,2.949 1.4453,4.004 0.9766,1.047 2.3438,1.574 4.1211,1.574 h 8.2617 c 1.6016,0 2.9297,-0.527 3.9844,-1.574 1.0547,-1.055 1.582,-2.383 1.582,-4.004 V 40.7344 c 0,-3.5547 -0.4101,-7.6758 -1.2109,-12.3633 C 81.6406,23.6836 79.7266,19.2383 76.7383,15.0313 73.75,10.832 69.4336,7.27734 63.7695,4.36719 58.1055,1.45703 50.4297,0 40.7227,0 31.8359,0 24.7305,1.45703 19.3984,4.36719 14.0664,7.27734 9.94531,10.7422 7.03516,14.7852 4.125,18.8281 2.23047,23.0391 1.33203,27.4023 0.453125,31.7695 0,35.4805 0,38.5547 V 168.047 c 0,1.621 0.492188,2.949 1.44922,4.004 0.97656,1.047 2.34375,1.574 4.12109,1.574 H 13.832 c 1.6016,0 2.9297,-0.527 3.9844,-1.574 1.0547,-1.055 1.582,-2.383 1.582,-4.004 V 48.2539"
               style="fill:#404344;fill-opacity:1;fill-rule:nonzero;stroke:none"
               id="path1468" />
            <path
               d="m 140.879,143.555 3.887,-51.1605 V 8.24219 c 0,-1.45313 -0.489,-2.79297 -1.465,-4.00391 -0.957,-1.21094 -2.344,-1.8164 -4.121,-1.8164 h -8.242 c -1.622,0 -2.95,0.5664 -4.004,1.69921 -1.055,1.125 -1.563,2.5 -1.563,4.1211 V 168.047 c 0,1.457 0.508,2.754 1.563,3.887 1.054,1.125 2.382,1.691 4.004,1.691 h 14.55 c 1.778,0 3.028,-0.605 3.77,-1.816 0.722,-1.211 1.328,-2.461 1.816,-3.762 L 196.66,32.4922 193.027,81.2305 v 86.5745 c 0,1.453 0.469,2.793 1.446,4.004 0.976,1.211 2.343,1.816 4.121,1.816 h 8.242 c 1.621,0 2.949,-0.566 4.004,-1.691 1.055,-1.133 1.582,-2.508 1.582,-4.129 V 8 c 0,-1.45703 -0.527,-2.75391 -1.582,-3.87891 -1.055,-1.13281 -2.383,-1.69921 -4.004,-1.69921 h -14.551 c -1.777,0 -3.066,0.60546 -3.867,1.8164 -0.82,1.21094 -1.387,2.46094 -1.699,3.76172 l -45.84,135.555"
               style="fill:#404344;fill-opacity:1;fill-rule:nonzero;stroke:none"
               id="path1470" />
            <path
               d="m 265.762,2.42188 c -1.621,0 -2.949,0.60546 -4.004,1.8164 -1.035,1.21094 -1.563,2.55078 -1.563,4.00391 V 168.047 c 0,1.301 0.528,2.551 1.563,3.762 1.055,1.211 2.383,1.816 4.004,1.816 h 8.242 c 1.777,0 3.164,-0.605 4.141,-1.816 0.957,-1.211 1.445,-2.461 1.445,-3.762 V 8.24219 c 0,-1.45313 -0.488,-2.79297 -1.445,-4.00391 -0.977,-1.21094 -2.364,-1.8164 -4.141,-1.8164 h -8.242"
               style="fill:#404344;fill-opacity:1;fill-rule:nonzero;stroke:none"
               id="path1472" />
            <path
               d="m 349.922,2.42188 c -2.91,0 -4.766,1.85546 -5.586,5.57812 l -32.734,160.047 c -0.332,1.621 -0.079,2.949 0.722,4.004 0.821,1.047 2.11,1.574 3.887,1.574 h 9.453 c 3.242,0 5.176,-1.855 5.82,-5.578 l 10.43,-52.137 12.617,-76.6327 12.598,76.6327 10.43,52.137 c 0.644,3.723 2.597,5.578 5.82,5.578 h 9.473 c 1.757,0 3.066,-0.527 3.867,-1.574 0.801,-1.055 1.054,-2.383 0.722,-4.004 L 364.707,8 c -0.801,-3.72266 -2.656,-5.57812 -5.566,-5.57812 h -9.219"
               style="fill:#404344;fill-opacity:1;fill-rule:nonzero;stroke:none"
               id="path1474" />
            <path
               d="m 507.305,8 c 0,-1.62109 -0.606,-2.94922 -1.817,-4.00391 -1.23,-1.04687 -2.558,-1.57421 -4.004,-1.57421 h -63.789 c -1.621,0 -2.949,0.60546 -4.004,1.8164 -1.054,1.21094 -1.562,2.55078 -1.562,4.00391 V 168.047 c 0,1.301 0.508,2.551 1.562,3.762 1.055,1.211 2.383,1.816 4.004,1.816 h 62.09 c 1.445,0 2.793,-0.48 4.004,-1.457 1.211,-0.965 1.816,-2.344 1.816,-4.121 v -8.242 c 0,-1.621 -0.605,-2.95 -1.816,-4.004 -1.211,-1.055 -2.559,-1.571 -4.004,-1.571 h -48.262 v -53.593 h 41.465 c 1.465,0 2.793,-0.489 4.004,-1.4573 1.211,-0.9649 1.817,-2.3438 1.817,-4.1211 v -8.2422 c 0,-1.6211 -0.606,-2.957 -1.817,-4.0039 -1.211,-1.0547 -2.539,-1.582 -4.004,-1.582 H 451.523 V 21.8281 h 49.961 c 1.446,0 2.774,-0.4883 4.004,-1.457 1.211,-0.9766 1.817,-2.3516 1.817,-4.1289 V 8"
               style="fill:#404344;fill-opacity:1;fill-rule:nonzero;stroke:none"
               id="path1476" />
            <path
               d="m 561.133,102.09 h 15.996 c 4.687,0 8.535,0.207 11.523,0.605 2.989,0.41 5.625,1.504 7.891,3.293 1.602,1.141 2.91,2.313 3.867,3.535 0.977,1.211 1.778,2.598 2.442,4.141 0.644,1.543 1.074,3.406 1.328,5.606 0.234,2.187 0.351,4.91 0.351,8.164 0,6.816 -0.722,12.058 -2.168,15.711 -1.465,3.652 -3.476,6.367 -6.074,8.156 -1.289,0.808 -2.578,1.426 -3.867,1.824 -1.309,0.41 -3.164,0.695 -5.586,0.859 -2.422,0.157 -5.664,0.246 -9.707,0.246 -4.043,0 -9.375,0 -15.996,0 z M 626.367,8 c 0.313,-0.96875 0.156,-2.14062 -0.488,-3.51562 -0.645,-1.37891 -2.031,-2.0625 -4.121,-2.0625 h -9.707 c -1.602,0 -2.91,0.36328 -3.867,1.09375 C 607.207,4.23828 606.406,5.73438 605.762,8 L 582.715,82.9297 561.133,82.6875 V 8 c 0,-1.30078 -0.488,-2.55078 -1.465,-3.76172 -0.957,-1.21094 -2.344,-1.8164 -4.121,-1.8164 h -8.242 c -1.621,0 -2.95,0.60546 -4.004,1.8164 C 542.246,5.44922 541.738,6.69922 541.738,8 v 160.047 c 0,1.621 0.606,2.949 1.817,4.004 1.211,1.047 2.461,1.574 3.75,1.574 h 29.355 c 9.531,0 17.578,-0.812 24.121,-2.422 6.543,-1.621 11.68,-5.254 15.391,-10.91 2.754,-4.043 4.746,-8.691 5.957,-13.945 1.211,-5.254 1.816,-11.602 1.816,-19.043 0,-11.629 -1.621,-20.528 -4.863,-26.668 -3.223,-6.1448 -8.887,-10.8323 -16.973,-14.0628 L 626.367,8"
               style="fill:#404344;fill-opacity:1;fill-rule:nonzero;stroke:none"
               id="path1478" />
            <path
               d="m 739.121,49.707 c 0,-16.6484 -3.789,-29.1015 -11.387,-37.3437 C 720.137,4.12109 709.453,0 695.723,0 c -8.575,0 -15.606,1.45703 -21.094,4.36719 -5.508,2.91015 -9.922,6.78511 -13.223,11.64061 -3.32,4.8438 -5.625,10.418 -6.914,16.7266 -1.289,6.3086 -1.933,12.8515 -1.933,19.6406 v 2.4297 c 0,1.6133 0.488,2.9492 1.445,3.9961 0.976,1.0547 2.344,1.582 4.121,1.582 h 8.496 c 1.621,0 2.91,-0.5273 3.887,-1.582 0.957,-1.0469 1.445,-2.3828 1.445,-3.9961 v -2.6641 c 0,-6.4765 0.645,-11.8086 1.934,-16.0078 1.289,-4.207 3.047,-7.5586 5.215,-10.0664 2.187,-2.5117 4.687,-4.2383 7.519,-5.2148 2.832,-0.9688 5.859,-1.4571 9.102,-1.4571 7.109,0 12.89,2.1407 17.343,6.4258 4.434,4.2891 6.661,11.7695 6.661,22.4336 0,5.9844 -1.582,11.1602 -4.727,15.5156 -3.164,4.3672 -7.148,8.4102 -12.012,12.1289 -4.843,3.7227 -10.019,7.3946 -15.508,11.0352 -5.507,3.6328 -10.683,7.7148 -15.527,12.2461 -4.844,4.5233 -8.848,9.7383 -12.012,15.6443 -3.144,5.899 -4.726,12.969 -4.726,21.211 0,5.176 0.859,10.188 2.558,15.039 1.7,4.856 4.2,9.133 7.52,12.852 3.301,3.722 7.461,6.672 12.48,8.847 5,2.188 10.821,3.282 17.461,3.282 6.621,0 12.403,-1.094 17.344,-3.282 4.922,-2.175 9.043,-5.085 12.363,-8.718 3.301,-3.645 5.821,-7.805 7.52,-12.492 1.699,-4.696 2.539,-9.461 2.539,-14.305 v -1.699 c 0,-1.621 -0.527,-2.95 -1.582,-4.004 -1.035,-1.055 -2.461,-1.575 -4.238,-1.575 h -8.008 c -1.602,0 -2.949,0.606 -3.984,1.817 -1.055,1.211 -1.583,2.461 -1.583,3.762 v 0.476 c 0,5.988 -1.816,10.918 -5.449,14.797 -3.652,3.875 -8.535,5.82 -14.687,5.82 -3.867,0 -7.11,-0.566 -9.688,-1.699 -2.597,-1.133 -4.726,-2.668 -6.426,-4.601 -1.699,-1.942 -2.91,-4.168 -3.652,-6.668 -0.723,-2.512 -1.074,-5.059 -1.074,-7.649 0,-5.82 1.562,-10.867 4.726,-15.156 3.145,-4.277 7.149,-8.359 11.993,-12.246 4.863,-3.875 10.019,-7.676 15.527,-11.3947 5.488,-3.7227 10.664,-7.8047 15.527,-12.2461 4.844,-4.4453 8.848,-9.4922 11.993,-15.1563 3.164,-5.6562 4.726,-12.3632 4.726,-20.1289"
               style="fill:#404344;fill-opacity:1;fill-rule:nonzero;stroke:none"
               id="path1480" />
            <path
               d="m 782.285,2.42188 c -1.621,0 -2.949,0.60546 -4.004,1.8164 -1.054,1.21094 -1.562,2.55078 -1.562,4.00391 V 168.047 c 0,1.301 0.508,2.551 1.562,3.762 1.055,1.211 2.383,1.816 4.004,1.816 h 8.242 c 1.778,0 3.164,-0.605 4.121,-1.816 0.977,-1.211 1.465,-2.461 1.465,-3.762 V 8.24219 c 0,-1.45313 -0.488,-2.79297 -1.465,-4.00391 -0.957,-1.21094 -2.343,-1.8164 -4.121,-1.8164 h -8.242"
               style="fill:#404344;fill-opacity:1;fill-rule:nonzero;stroke:none"
               id="path1482" />
            <path
               d="m 916.152,159.805 c 0,-1.621 -0.605,-2.95 -1.816,-4.004 -1.231,-1.055 -2.559,-1.571 -4.004,-1.571 H 882.93 V 8.24219 c 0,-1.45313 -0.489,-2.79297 -1.465,-4.00391 -0.957,-1.21094 -2.344,-1.8164 -4.121,-1.8164 h -8.242 c -1.622,0 -2.95,0.60546 -4.004,1.8164 -1.055,1.21094 -1.582,2.55078 -1.582,4.00391 V 154.23 h -27.871 c -1.309,0 -2.559,0.516 -3.77,1.571 -1.211,1.054 -1.816,2.383 -1.816,4.004 v 8.242 c 0,1.777 0.605,3.156 1.816,4.121 1.211,0.977 2.461,1.457 3.77,1.457 h 74.687 c 1.445,0 2.773,-0.48 4.004,-1.457 1.211,-0.965 1.816,-2.344 1.816,-4.121 v -8.242"
               style="fill:#404344;fill-opacity:1;fill-rule:nonzero;stroke:none"
               id="path1484" />
            <path
               d="m 970.234,2.42188 c -1.621,0 -2.949,0.60546 -4.004,1.8164 -1.054,1.21094 -1.582,2.55078 -1.582,4.00391 V 80.9961 l -31.523,87.0509 c -0.645,1.457 -0.488,2.754 0.488,3.887 0.957,1.125 2.344,1.691 4.121,1.691 h 10.43 c 1.602,0 2.813,-0.48 3.633,-1.457 0.801,-0.965 1.543,-2.344 2.187,-4.121 L 974.355,105 l 21.583,63.047 c 0.644,1.777 1.367,3.156 2.167,4.121 0.821,0.977 2.035,1.457 3.655,1.457 h 10.9 c 1.77,0 3.16,-0.566 4.14,-1.691 0.95,-1.133 1.11,-2.43 0.47,-3.887 L 984.043,80.9961 V 8.24219 c 0,-1.45313 -0.469,-2.79297 -1.445,-4.00391 -0.977,-1.21094 -2.344,-1.8164 -4.121,-1.8164 h -8.243"
               style="fill:#404344;fill-opacity:1;fill-rule:nonzero;stroke:none"
               id="path1486" />
            <path
               d="m 1185.8,8 c 0,-1.62109 -0.6,-2.94922 -1.82,-4.00391 -1.21,-1.04687 -2.53,-1.57421 -4,-1.57421 h -60.37 c -1.62,0 -2.95,0.60546 -4,1.8164 -1.06,1.21094 -1.59,2.55078 -1.59,4.00391 V 168.047 c 0,1.301 0.53,2.551 1.59,3.762 1.05,1.211 2.38,1.816 4,1.816 h 8.24 c 1.78,0 3.15,-0.605 4.12,-1.816 0.98,-1.211 1.45,-2.461 1.45,-3.762 V 21.8281 h 46.56 c 1.47,0 2.79,-0.4883 4,-1.457 1.22,-0.9766 1.82,-2.3516 1.82,-4.1289 V 8"
               style="fill:#404344;fill-opacity:1;fill-rule:nonzero;stroke:none"
               id="path1488" />
            <path
               d="m 1223.63,2.42188 c -1.62,0 -2.95,0.60546 -4,1.8164 -1.06,1.21094 -1.56,2.55078 -1.56,4.00391 V 168.047 c 0,1.301 0.5,2.551 1.56,3.762 1.05,1.211 2.38,1.816 4,1.816 h 8.25 c 1.77,0 3.16,-0.605 4.12,-1.816 0.97,-1.211 1.46,-2.461 1.46,-3.762 V 8.24219 c 0,-1.45313 -0.49,-2.79297 -1.46,-4.00391 -0.96,-1.21094 -2.35,-1.8164 -4.12,-1.8164 h -8.25"
               style="fill:#404344;fill-opacity:1;fill-rule:nonzero;stroke:none"
               id="path1490" />
            <path
               d="M 1304.63,82.6875 V 21.8281 h 19.88 c 4.04,0 7.64,0.4375 10.8,1.3282 3.15,0.8867 5.82,2.5468 7.99,4.9687 2.19,2.4336 3.85,5.8203 4.98,10.1875 1.13,4.3633 1.7,10.1055 1.7,17.2148 0,5.6563 -0.64,10.2657 -1.95,13.8282 -1.29,3.5547 -3.23,6.3008 -5.82,8.2422 -2.58,1.9453 -5.78,3.2734 -9.57,4.0039 -3.81,0.7226 -8.21,1.0859 -13.23,1.0859 z m 0,19.4025 h 15.27 c 3.73,0 7.25,0.207 10.55,0.605 3.32,0.403 6.19,1.535 8.61,3.399 2.42,1.855 4.32,4.765 5.71,8.73 1.36,3.957 2.05,9.571 2.05,16.848 0,5.34 -0.73,9.5 -2.17,12.488 -1.47,2.988 -3.44,5.254 -5.96,6.797 -2.5,1.535 -5.53,2.461 -9.08,2.785 -3.56,0.321 -7.44,0.488 -11.64,0.488 h -13.34 z m 13.57,71.535 c 6.8,0 12.7,-0.324 17.72,-0.969 5,-0.644 9.2,-1.941 12.6,-3.875 5.82,-3.242 10.15,-8.125 12.98,-14.679 2.82,-6.543 4.24,-13.7 4.24,-21.454 0,-12.609 -1.31,-21.671 -3.88,-27.16 -1.78,-3.398 -3.56,-5.906 -5.34,-7.5192 -1.77,-1.6211 -4.04,-3.1524 -6.79,-4.6094 7.05,-2.2656 12.07,-6.5899 15.09,-12.9766 3.03,-6.3867 4.56,-14.914 4.56,-25.5781 0,-6.3086 -0.42,-12.5781 -1.22,-18.7969 -0.82,-6.2226 -2.71,-11.8476 -5.72,-16.8555 -3.01,-5.0117 -7.38,-9.0546 -13.12,-12.12105 -5.77,-3.07422 -13.58,-4.60937 -23.48,-4.60937 h -35.02 c -1.62,0 -2.95,0.60546 -4,1.8164 -1.06,1.21094 -1.59,2.55078 -1.59,4.00391 V 168.047 c 0,1.777 0.61,3.156 1.82,4.121 1.21,0.977 2.46,1.457 3.75,1.457 h 27.4"
               style="fill:#404344;fill-opacity:1;fill-rule:nonzero;stroke:none"
               id="path1492" />
            <path
               d="m 1427.81,102.09 h 16 c 4.69,0 8.53,0.207 11.52,0.605 2.99,0.41 5.63,1.504 7.89,3.293 1.6,1.141 2.91,2.313 3.87,3.535 0.98,1.211 1.78,2.598 2.44,4.141 0.65,1.543 1.08,3.406 1.33,5.606 0.23,2.187 0.35,4.91 0.35,8.164 0,6.816 -0.72,12.058 -2.17,15.711 -1.46,3.652 -3.47,6.367 -6.07,8.156 -1.29,0.808 -2.58,1.426 -3.87,1.824 -1.31,0.41 -3.16,0.695 -5.58,0.859 -2.43,0.157 -5.67,0.246 -9.71,0.246 -4.04,0 -9.38,0 -16,0 z M 1493.05,8 c 0.31,-0.96875 0.15,-2.14062 -0.49,-3.51562 -0.65,-1.37891 -2.03,-2.0625 -4.12,-2.0625 h -9.71 c -1.6,0 -2.91,0.36328 -3.87,1.09375 -0.97,0.72265 -1.77,2.21875 -2.42,4.48437 l -23.05,74.9297 -21.58,-0.2422 V 8 c 0,-1.30078 -0.49,-2.55078 -1.46,-3.76172 -0.96,-1.21094 -2.35,-1.8164 -4.12,-1.8164 h -8.25 c -1.62,0 -2.94,0.60546 -4,1.8164 -1.05,1.21094 -1.56,2.46094 -1.56,3.76172 v 160.047 c 0,1.621 0.6,2.949 1.81,4.004 1.22,1.047 2.47,1.574 3.75,1.574 h 29.36 c 9.53,0 17.58,-0.812 24.12,-2.422 6.54,-1.621 11.68,-5.254 15.39,-10.91 2.76,-4.043 4.75,-8.691 5.96,-13.945 1.21,-5.254 1.82,-11.602 1.82,-19.043 0,-11.629 -1.63,-20.528 -4.87,-26.668 -3.22,-6.1448 -8.88,-10.8323 -16.97,-14.0628 L 1493.05,8"
               style="fill:#404344;fill-opacity:1;fill-rule:nonzero;stroke:none"
               id="path1494" />
            <path
               d="m 1576.7,55.7734 -9.45,60.1366 -3.4,32.742 h -0.96 l -3.4,-32.742 -9.45,-60.1366 z m -8.48,117.8516 c 2.91,0 4.77,-1.855 5.57,-5.578 L 1605.8,8 c 0.33,-1.62109 0.08,-2.94922 -0.72,-4.00391 -0.82,-1.04687 -2.11,-1.57421 -3.89,-1.57421 h -9.45 c -3.24,0 -5.18,1.85546 -5.82,5.57812 l -6.06,28.3672 h -33.22 L 1540.82,8 c -0.64,-3.72266 -2.6,-5.57812 -5.82,-5.57812 h -9.45 c -1.8,0 -3.09,0.52734 -3.89,1.57421 -0.82,1.05469 -1.05,2.38282 -0.72,4.00391 l 32.01,160.047 c 0.31,1.621 0.88,2.949 1.68,4.004 0.82,1.047 2.11,1.574 3.89,1.574 h 9.7"
               style="fill:#404344;fill-opacity:1;fill-rule:nonzero;stroke:none"
               id="path1496" />
            <path
               d="m 1661.33,102.09 h 16.01 c 4.69,0 8.52,0.207 11.53,0.605 2.99,0.41 5.6,1.504 7.87,3.293 1.62,1.141 2.91,2.313 3.89,3.535 0.97,1.211 1.77,2.598 2.42,4.141 0.64,1.543 1.09,3.406 1.33,5.606 0.25,2.187 0.37,4.91 0.37,8.164 0,6.816 -0.73,12.058 -2.19,15.711 -1.45,3.652 -3.48,6.367 -6.06,8.156 -1.3,0.808 -2.59,1.426 -3.88,1.824 -1.29,0.41 -3.15,0.695 -5.57,0.859 -2.44,0.157 -5.66,0.246 -9.71,0.246 -4.04,0 -9.37,0 -16.01,0 z M 1726.56,8 c 0.33,-0.96875 0.18,-2.14062 -0.47,-3.51562 -0.66,-1.37891 -2.03,-2.0625 -4.14,-2.0625 h -9.68 c -1.63,0 -2.91,0.36328 -3.89,1.09375 -0.96,0.72265 -1.78,2.21875 -2.42,4.48437 l -23.03,74.9297 -21.6,-0.2422 V 8 c 0,-1.30078 -0.47,-2.55078 -1.45,-3.76172 -0.97,-1.21094 -2.34,-1.8164 -4.12,-1.8164 h -8.24 c -1.62,0 -2.95,0.60546 -4,1.8164 -1.06,1.21094 -1.59,2.46094 -1.59,3.76172 v 160.047 c 0,1.621 0.61,2.949 1.82,4.004 1.21,1.047 2.46,1.574 3.77,1.574 h 29.34 c 9.53,0 17.57,-0.812 24.12,-2.422 6.56,-1.621 11.68,-5.254 15.41,-10.91 2.75,-4.043 4.72,-8.691 5.93,-13.945 1.22,-5.254 1.82,-11.602 1.82,-19.043 0,-11.629 -1.62,-20.528 -4.84,-26.668 -3.25,-6.1448 -8.89,-10.8323 -16.98,-14.0628 L 1726.56,8"
               style="fill:#404344;fill-opacity:1;fill-rule:nonzero;stroke:none"
               id="path1498" />
            <path
               d="m 1783.32,2.42188 c -1.62,0 -2.95,0.60546 -4,1.8164 -1.06,1.21094 -1.57,2.55078 -1.57,4.00391 V 80.9961 l -31.54,87.0509 c -0.64,1.457 -0.47,2.754 0.49,3.887 0.98,1.125 2.34,1.691 4.12,1.691 h 10.43 c 1.62,0 2.83,-0.48 3.65,-1.457 0.8,-0.965 1.53,-2.344 2.17,-4.121 l 20.37,-63.047 21.58,63.047 c 0.65,1.777 1.37,3.156 2.19,4.121 0.8,0.977 2.01,1.457 3.63,1.457 h 10.92 c 1.78,0 3.15,-0.566 4.12,-1.691 0.98,-1.133 1.14,-2.43 0.49,-3.887 L 1797.15,80.9961 V 8.24219 c 0,-1.45313 -0.49,-2.79297 -1.47,-4.00391 -0.95,-1.21094 -2.34,-1.8164 -4.12,-1.8164 h -8.24"
               style="fill:#404344;fill-opacity:1;fill-rule:nonzero;stroke:none"
               id="path1500" />
          </g>
        </g>
      </g>
    </g>
  </g>
</svg>
